<?xml version="1.0" standalone="no"?>
<!DOCTYPE svg PUBLIC "-//W3C//DTD SVG 20010904//EN"
 "http://www.w3.org/TR/2001/REC-SVG-20010904/DTD/svg10.dtd">
<svg version="1.0" xmlns="http://www.w3.org/2000/svg"
 width="258.000000pt" height="196.000000pt" viewBox="0 0 258.000000 196.000000"
 preserveAspectRatio="xMidYMid meet">
<metadata>
Created by potrace 1.10, written by Peter Selinger 2001-2011
</metadata>
<g transform="translate(0.000000,196.000000) scale(0.100000,-0.100000)"
fill="#1e90ff" stroke="none">
<path d="M718 1854 c-29 -31 -53 -59 -53 -62 -1 -4 -6 -17 -13 -30 -20 -35
-17 -850 3 -898 8 -19 19 -33 25 -29 5 3 7 0 5 -7 -6 -15 56 -92 87 -109 24
-13 577 -21 557 -8 -9 6 5 9 39 9 32 0 52 -4 52 -11 0 -9 20 -10 68 -5 37 3
109 10 159 15 69 7 101 15 123 31 39 27 80 92 79 122 -1 19 -2 17 -10 -8 -9
-33 -84 -124 -101 -124 -5 0 10 22 35 50 24 27 47 63 51 81 3 17 6 215 6 440
0 321 -3 409 -12 409 -10 0 -10 2 -1 8 17 11 -6 58 -53 110 -34 37 -46 44 -99
52 -33 6 -235 10 -448 10 -324 0 -394 -3 -424 -15 -20 -8 -38 -13 -41 -10 -3
2 10 11 29 19 27 12 29 15 12 16 -13 0 -41 -21 -75 -56z m320 21 c-2 -1 -24
-21 -51 -45 -26 -23 -50 -40 -53 -37 -4 3 8 18 25 33 17 14 28 30 25 36 -3 5
-12 2 -19 -9 -19 -26 -101 -113 -107 -113 -3 0 -5 11 -5 25 0 19 3 23 12 15
10 -8 13 -6 11 6 0 10 15 26 39 39 44 25 54 41 26 41 -12 0 -17 -5 -13 -15 3
-8 1 -12 -5 -8 -6 4 -35 -14 -64 -41 -30 -26 -63 -47 -76 -47 -13 -1 -23 2
-23 5 0 15 38 40 53 35 8 -4 18 -2 22 4 3 7 0 8 -10 5 -11 -5 -14 -2 -9 10 4
10 13 14 24 11 10 -3 23 2 31 11 13 16 12 16 -8 5 -13 -6 -23 -8 -23 -3 0 5
10 14 23 20 16 8 17 11 6 11 -9 1 -49 -31 -88 -70 -51 -49 -77 -69 -89 -64
-15 5 -15 4 1 -12 9 -10 14 -27 12 -38 -2 -11 -4 -22 -4 -25 -1 -3 -5 1 -10 9
-7 10 -9 7 -8 -12 l2 -26 35 32 c19 17 54 50 77 71 24 22 45 37 48 34 3 -3
-31 -40 -77 -81 -45 -42 -79 -79 -75 -83 4 -4 25 12 46 37 22 24 43 41 46 37
4 -4 -15 -29 -42 -56 l-50 -50 -3 -83 c-2 -46 -4 -132 -4 -191 -1 -60 -4 -108
-8 -108 -5 0 -8 -8 -8 -17 0 -13 7 -10 30 12 30 29 43 58 15 35 -16 -14 -17
-12 -19 42 -1 20 2 34 6 32 4 -3 5 10 2 28 -5 29 0 39 45 83 55 53 72 47 19
-7 -18 -19 -40 -42 -48 -53 -14 -19 -14 -19 5 -5 11 8 23 19 26 24 4 5 12 5
18 1 8 -4 2 -16 -18 -36 -39 -37 -40 -46 -1 -18 34 26 46 49 28 60 -7 4 -9 11
-5 15 3 4 12 2 19 -4 10 -8 20 -5 38 10 l25 20 -27 -16 c-19 -11 -29 -13 -34
-5 -4 7 1 16 10 21 13 7 14 13 5 30 -9 18 -8 24 7 35 9 7 15 15 12 18 -3 3
-32 -21 -63 -55 -32 -33 -59 -59 -61 -58 -6 6 9 57 15 53 4 -2 7 6 6 18 -2 12
-7 21 -13 20 -7 -2 -7 9 0 33 5 20 7 42 4 50 -3 7 0 16 6 20 7 5 8 2 3 -6 -5
-9 -4 -11 4 -6 6 4 20 2 29 -5 12 -10 11 -7 -3 10 l-20 23 37 34 c21 19 35 34
31 34 -4 0 8 11 26 25 37 27 75 65 77 77 1 5 2 13 3 18 0 6 6 10 12 10 8 0 8
-5 -1 -15 -28 -34 7 -11 69 43 l66 59 184 1 184 2 -33 -25 c-19 -14 -70 -60
-115 -103 -44 -42 -107 -101 -140 -129 -32 -29 -54 -53 -49 -53 6 0 15 5 22
12 23 23 25 -3 2 -27 -25 -27 -51 -35 -30 -10 9 10 9 15 1 15 -6 0 -11 -5 -11
-11 0 -6 -8 -8 -17 -5 -15 5 -15 4 1 -9 18 -14 15 -20 -7 -16 -5 1 -6 -3 -2
-9 9 -15 -15 -42 -32 -36 -8 3 -11 1 -8 -4 9 -14 -8 -12 -25 3 -12 10 -12 9 0
-6 10 -14 10 -21 2 -29 -7 -7 -12 -15 -12 -20 0 -4 13 5 28 20 16 15 66 61
112 102 46 41 115 104 154 140 39 36 89 79 110 95 62 47 112 94 100 95 -11 0
-164 -125 -204 -168 -40 -43 -131 -115 -137 -108 -3 3 10 18 28 33 19 15 50
43 69 62 19 19 71 66 115 105 44 39 82 74 85 78 3 4 60 7 125 7 135 -1 157 -9
210 -76 22 -28 30 -48 30 -79 0 -33 3 -40 13 -32 15 13 16 0 2 -36 -5 -14 -6
-26 -2 -26 7 0 8 -72 2 -185 -1 -16 0 -37 1 -45 1 -8 1 -44 -1 -80 l-2 -65
-74 -69 c-41 -38 -77 -66 -81 -63 -3 4 28 39 70 78 43 39 77 76 77 82 0 6 -10
1 -23 -11 -13 -12 -27 -20 -30 -17 -4 3 -5 2 -2 -2 7 -8 -75 -93 -89 -93 -6 0
10 20 34 45 24 25 41 45 36 45 -11 0 -91 -76 -158 -153 -52 -57 -58 -69 -47
-83 10 -13 10 -17 -2 -25 -11 -7 -11 -9 0 -9 11 0 11 -3 1 -15 -6 -8 -9 -19
-5 -24 3 -6 1 -19 -5 -30 -7 -13 -7 -22 0 -26 14 -9 2 -25 -18 -25 -13 0 -14
2 -3 9 7 5 9 11 4 14 -5 3 -5 44 -1 94 12 148 11 297 -1 301 -6 2 -11 8 -11
13 0 15 130 11 130 -3 0 -7 6 -4 13 7 15 25 17 197 2 192 -5 -2 -9 -14 -7 -27
2 -14 0 -20 -7 -15 -6 3 -9 11 -5 16 4 7 -7 8 -28 5 -89 -15 -85 -16 -85 15 0
16 5 25 10 22 6 -3 7 -1 3 5 -12 20 45 62 74 55 35 -8 35 -8 12 -48 -14 -23
-17 -35 -9 -35 15 0 112 85 112 98 0 6 4 14 9 19 5 5 6 3 2 -4 -10 -18 9 -16
24 2 10 12 10 19 2 27 -9 9 -18 6 -37 -12 -16 -15 -21 -26 -14 -30 9 -6 -8
-20 -31 -24 -3 -1 -11 -5 -19 -10 -10 -6 -12 -5 -9 5 3 8 13 13 22 13 18 -2
21 7 6 22 -6 6 -14 40 -18 76 -7 57 -6 65 7 62 9 -2 4 2 -12 9 -27 13 -29 31
-2 21 7 -3 16 -1 19 5 4 6 13 8 21 5 19 -8 75 35 68 53 -3 8 -13 11 -25 7 -14
-4 -18 -3 -13 5 4 7 2 18 -5 26 -10 11 -17 9 -42 -16 -26 -24 -34 -27 -46 -16
-13 10 -14 9 -8 -1 5 -8 1 -19 -10 -27 -22 -17 -38 -19 -29 -5 7 11 -8 14 -19
3 -4 -4 -19 -7 -34 -8 -16 0 -26 -5 -24 -12 1 -7 -2 -13 -6 -13 -17 0 -21 14
-10 29 8 10 4 9 -10 -3 -23 -20 -31 -9 -10 12 29 29 -11 7 -48 -26 -32 -29
-39 -42 -34 -57 4 -11 3 -26 -3 -33 -5 -7 17 6 50 28 62 41 84 50 64 27 -6 -8
-7 -18 -3 -22 4 -5 -2 -5 -13 -1 -11 4 -16 4 -12 0 4 -4 -7 -16 -25 -27 -47
-28 -88 -69 -81 -81 4 -6 2 -8 -2 -3 -12 10 -44 -62 -45 -100 0 -39 -3 -41
-72 -45 -49 -2 -56 -6 -67 -30 -7 -16 -17 -26 -22 -22 -5 3 -9 -4 -9 -14 0
-23 -24 -72 -36 -75 -5 -1 -8 -5 -6 -9 3 -12 -16 -9 -24 3 -4 7 0 16 9 21 25
13 49 40 42 46 -3 3 -23 -13 -45 -36 -33 -34 -39 -46 -34 -68 6 -24 5 -25 -14
-15 -17 9 -21 9 -16 -2 3 -8 -22 -42 -59 -81 -36 -36 -61 -68 -57 -71 12 -8
85 68 82 85 -3 13 -2 13 7 0 9 -13 11 -13 11 3 0 9 5 17 11 17 22 0 130 121
136 153 6 27 7 29 15 12 8 -19 8 -18 4 1 -2 12 0 28 5 35 6 9 8 -12 4 -54 -2
-37 -1 -66 4 -63 10 6 98 9 123 3 24 -4 35 -17 15 -17 -14 0 -17 -18 -19 -132
l-3 -133 -25 3 c-16 1 -20 -1 -13 -6 10 -6 10 -12 -3 -28 -8 -10 -13 -14 -10
-7 4 6 2 14 -3 17 -12 8 -34 -21 -26 -34 4 -6 -4 -19 -17 -29 -13 -11 -19 -23
-15 -28 5 -4 33 18 63 50 30 32 54 52 54 45 0 -8 -34 -47 -75 -88 -40 -40 -71
-78 -68 -83 3 -6 1 -7 -4 -4 -6 4 -13 -2 -16 -13 -5 -20 -27 -28 -27 -10 0 6
5 10 12 10 6 0 8 3 4 7 -3 4 8 22 26 40 17 18 28 36 24 40 -4 4 -11 1 -16 -7
-8 -13 -10 -12 -10 2 0 9 12 26 27 37 14 12 23 24 20 27 -12 12 -57 -50 -52
-72 3 -15 -10 -35 -50 -75 -55 -54 -64 -69 -44 -69 5 0 7 6 3 13 -6 9 -4 9 7
-1 7 -6 18 -12 23 -12 6 0 50 41 98 91 49 51 91 89 95 85 4 -3 -6 -19 -20 -34
-15 -16 -24 -32 -20 -37 5 -4 3 -5 -3 -2 -6 4 -37 -21 -69 -54 l-58 -61 -141
4 c-138 3 -142 4 -171 31 -36 33 -56 36 -29 5 19 -23 19 -23 -2 -5 -23 19 -27
44 -11 67 9 12 8 13 -2 3 -11 -9 -19 -6 -41 15 -25 25 -27 35 -30 112 -4 108
-4 196 0 510 3 243 4 257 26 295 52 93 98 115 242 113 62 0 111 -2 110 -3z
m652 -33 c0 -4 -5 -13 -11 -19 -8 -8 -7 -13 2 -18 8 -6 10 -4 4 6 -8 12 -6 12
8 0 13 -11 17 -11 17 -1 0 8 3 10 7 7 8 -9 -32 -47 -49 -47 -9 0 -9 3 2 10 8
5 13 10 10 11 -3 0 -13 2 -22 4 -11 2 -15 -2 -11 -11 4 -10 0 -12 -13 -7 -13
5 -15 3 -9 -7 6 -9 4 -11 -4 -6 -7 5 -21 0 -31 -9 -10 -9 -23 -14 -29 -11 -6
4 -27 0 -47 -9 -45 -19 -55 -19 -30 0 11 8 28 15 38 15 12 0 15 5 11 16 -5 13
-3 15 13 7 23 -12 47 -6 37 10 -3 7 -2 9 2 4 10 -8 54 19 73 45 13 18 32 24
32 10z m-170 -72 c0 -5 -2 -10 -4 -10 -2 0 -12 -3 -20 -6 -12 -5 -15 -2 -10
10 7 17 34 22 34 6z m-64 -13 c4 -3 -6 -12 -22 -19 -16 -7 -35 -18 -42 -25
-18 -17 -25 -16 -19 1 3 8 1 17 -6 20 -7 2 -5 5 4 5 9 1 22 8 29 16 12 14 43
16 56 2z m-666 -18 c0 -5 -3 -9 -7 -9 -5 0 -21 -11 -37 -25 -16 -14 -30 -25
-31 -25 -1 0 -1 10 0 23 1 13 8 22 18 21 8 -1 13 4 11 11 -3 8 4 13 20 13 14
0 26 -4 26 -9z m35 -29 c-16 -16 -31 -28 -33 -25 -7 7 39 55 52 55 5 0 -3 -13
-19 -30z m785 11 c0 -5 -9 -7 -20 -4 -11 3 -20 7 -20 9 0 2 9 4 20 4 11 0 20
-4 20 -9z m-9 -19 c9 -9 12 -27 10 -74 -1 -34 -4 -38 -28 -38 -52 0 -74 -12
-93 -51 -11 -21 -20 -54 -20 -73 l0 -35 68 2 67 2 3 -44 c2 -24 0 -47 -5 -52
-4 -4 -42 -9 -83 -11 l-76 -3 3 -30 c11 -96 22 -260 22 -322 l1 -73 -65 0 -65
0 0 136 c0 100 -3 133 -12 128 -7 -4 -8 -3 -4 4 3 6 3 48 -1 94 -4 46 -8 76
-10 68 -3 -12 -18 -15 -71 -13 -74 2 -68 -7 -64 84 l2 40 48 -2 c26 -1 53 0
59 4 6 4 20 38 32 75 17 55 29 76 68 113 80 74 111 91 163 84 24 -3 47 -9 51
-13z m24 -182 c-3 -5 -11 -10 -16 -10 -6 0 -7 5 -4 10 3 6 11 10 16 10 6 0 7
-4 4 -10z m-158 -247 c-3 -10 -5 -4 -5 12 0 17 2 24 5 18 2 -7 2 -21 0 -30z
m-407 17 c0 -5 -4 -10 -9 -10 -6 0 -13 5 -16 10 -3 6 1 10 9 10 9 0 16 -4 16
-10z m247 -52 c-3 -7 -5 -2 -5 12 0 14 2 19 5 13 2 -7 2 -19 0 -25z m180 -125
c-2 -32 -3 -8 -3 52 0 61 1 87 3 58 2 -29 2 -78 0 -110z m322 70 c1 -32 3 -89
6 -127 5 -66 -6 -103 -25 -91 -5 3 -12 0 -16 -6 -4 -7 -3 -9 3 -6 6 4 13 0 16
-8 4 -9 1 -12 -9 -8 -8 3 -14 -1 -14 -8 0 -9 -4 -7 -11 4 -8 14 -7 23 7 38 12
13 20 16 25 8 5 -8 8 -8 13 0 4 6 3 11 -3 11 -6 0 -8 7 -5 15 4 8 3 15 -1 15
-11 0 -35 -27 -29 -33 3 -3 -4 -8 -15 -12 -24 -7 -25 -13 -6 -39 12 -16 12
-21 0 -32 -7 -8 -19 -14 -25 -14 -7 0 -10 -7 -7 -15 4 -8 2 -17 -3 -20 -6 -4
-10 -1 -10 5 0 6 -5 8 -12 4 -9 -6 -9 -9 0 -12 7 -2 12 -8 12 -13 0 -4 -6 -6
-13 -3 -7 2 -29 -12 -48 -33 -47 -51 -60 -75 -21 -39 31 29 45 25 20 -4 -11
-12 -10 -12 5 -1 9 8 16 21 15 30 -2 9 2 15 9 14 7 -2 36 25 64 59 60 72 90
85 84 37 -4 -30 -57 -110 -92 -139 -10 -8 -29 -16 -43 -17 -14 -1 -59 -5 -101
-10 -76 -9 -134 -4 -112 10 6 4 19 4 28 1 12 -5 34 11 78 61 122 135 137 150
137 140 0 -5 -36 -52 -80 -103 -44 -51 -80 -96 -80 -100 0 -9 179 181 180 191
0 5 -6 14 -13 22 -11 11 -18 7 -41 -22 -15 -19 -31 -32 -34 -29 -3 4 11 24 32
45 21 22 35 44 31 50 -4 7 -1 10 7 9 7 -2 17 11 22 30 12 38 22 42 21 8 0 -14
-11 -37 -25 -53 l-25 -28 33 30 c18 16 30 35 27 43 -3 8 4 25 15 39 11 14 20
35 20 47 0 17 -4 14 -17 -12 -8 -18 -18 -30 -21 -27 -3 3 -27 -16 -54 -42 -26
-26 -48 -42 -48 -35 0 7 -4 10 -10 7 -6 -4 -5 -11 3 -20 9 -10 15 -10 26 -1
23 18 -2 -25 -32 -54 -61 -62 -90 -102 -80 -108 13 -8 -24 -59 -47 -64 -8 -2
-18 -7 -21 -12 -4 -4 -9 -4 -12 1 -4 6 5 21 18 33 15 14 25 18 25 11 0 -11 3
-11 15 -1 8 7 15 17 15 22 0 6 -7 5 -15 -2 -8 -7 -15 -8 -15 -2 0 5 7 15 15
22 27 23 98 111 93 116 -6 5 -177 -191 -185 -212 -3 -9 -21 -14 -49 -14 l-44
0 40 41 c22 23 38 45 34 48 -3 3 -26 -16 -50 -42 -36 -38 -52 -47 -78 -47
l-33 0 31 34 c35 40 46 40 20 0 -18 -27 -18 -27 3 -16 25 14 69 72 55 72 -6 0
-13 -7 -16 -17 -6 -15 -8 -15 -19 2 -15 19 -18 17 -70 -45 -21 -25 -33 -31
-59 -28 -30 3 -30 4 -13 18 11 9 16 10 11 3 -15 -27 11 -11 49 27 21 22 36 40
32 40 -4 0 -21 -15 -37 -32 -16 -18 -30 -28 -30 -22 0 5 13 23 30 39 16 15 27
32 24 37 -5 8 -100 -86 -107 -105 -1 -5 -17 -7 -35 -5 l-33 3 52 50 52 50 -38
-50 -39 -50 62 59 c33 33 59 63 56 68 -3 5 0 15 6 23 6 8 9 22 6 32 -3 10 -1
25 4 33 7 11 10 3 10 -27 0 -24 -4 -43 -10 -43 -5 0 -10 -5 -10 -12 0 -6 3 -9
6 -6 3 4 13 -1 22 -10 14 -14 37 -17 114 -17 l97 0 70 75 c73 78 81 90 56 86
-22 -3 -87 -69 -75 -76 6 -4 2 -14 -10 -25 -11 -10 -20 -13 -20 -7 0 7 4 12 9
12 6 0 9 9 8 20 -1 11 -5 20 -10 20 -5 0 -4 6 2 14 6 8 11 18 10 22 -4 24 2
44 11 39 8 -5 7 -12 -2 -23 -7 -10 7 2 32 25 30 30 46 39 51 31 6 -9 10 -7 15
5 4 10 13 16 20 13 9 -3 11 1 8 12 -5 14 -4 15 4 2 11 -14 -4 -47 -16 -35 -3
3 -14 -2 -24 -12 -10 -9 -18 -12 -18 -8 0 5 -18 -9 -40 -30 -22 -21 -40 -43
-40 -49 0 -5 16 10 36 33 23 27 39 38 44 31 5 -8 11 -6 20 4 7 9 16 14 20 11
11 -7 52 50 43 59 -3 3 3 6 15 6 16 0 20 4 15 17 -4 11 -3 14 5 9 7 -4 16 3
23 18 7 14 16 23 20 20 5 -3 9 -1 9 5 0 5 3 18 6 28 5 14 1 12 -18 -7 -13 -14
-24 -29 -24 -33 2 -16 -36 -30 -44 -17 -5 8 8 26 34 49 22 20 45 42 49 49 13
20 14 15 16 -45z m-499 -1 c0 -15 -2 -15 -10 -2 -13 20 -13 33 0 25 6 -3 10
-14 10 -23z m-3 -44 c-3 -8 -6 -5 -6 6 -1 11 2 17 5 13 3 -3 4 -12 1 -19z
m333 1 c-13 -8 -13 -10 0 -19 13 -9 11 -13 -10 -30 -14 -11 -21 -20 -16 -20
12 0 -25 -29 -37 -30 -5 0 6 18 23 40 17 22 27 40 21 40 -6 0 -11 -3 -11 -7 0
-5 -11 -21 -24 -36 -14 -16 -23 -34 -20 -40 2 -7 -6 -13 -21 -13 -14 -1 -25
-1 -25 1 0 9 125 134 129 129 3 -3 -1 -9 -9 -15z m-313 -151 c-2 -29 -3 -6 -3
52 0 58 1 81 3 53 2 -29 2 -77 0 -105z m378 112 c-4 -6 -12 -9 -18 -7 -7 3
-22 -5 -34 -16 -13 -11 -23 -16 -23 -10 0 17 63 64 73 54 5 -5 6 -14 2 -21z
m-390 -182 c4 -17 3 -28 -3 -28 -12 0 -22 85 -20 165 1 56 1 54 8 -25 4 -47
11 -97 15 -112z m-102 57 c-3 -9 -8 -14 -10 -11 -3 3 -2 9 2 15 9 16 15 13 8
-4z m387 -15 c-11 -16 -26 -33 -33 -37 -12 -7 0 11 32 50 23 28 24 20 1 -13z
m220 -10 c0 -5 -5 -10 -11 -10 -5 0 -7 5 -4 10 3 6 8 10 11 10 2 0 4 -4 4 -10z
m-206 -85 c-15 -20 -29 -33 -32 -31 -5 6 40 65 51 65 4 1 -4 -15 -19 -34z
m-199 15 l-60 -7 58 -1 c31 -1 57 -6 57 -11 0 -7 -47 -6 -132 3 -15 1 -30 -2
-32 -8 -2 -6 -5 -3 -5 8 -1 14 4 17 19 13 11 -3 20 -1 20 4 0 5 30 8 68 7 l67
-1 -60 -7z m275 -54 c0 -3 -4 -8 -10 -11 -5 -3 -10 -1 -10 4 0 6 5 11 10 11 6
0 10 -2 10 -4z m-600 -44 c0 -10 -21 -32 -30 -32 -4 0 -7 7 -7 15 0 8 4 12 9
9 4 -3 8 0 8 5 0 6 5 11 10 11 6 0 10 -4 10 -8z m387 -68 c-3 -3 -12 -4 -19
-1 -8 3 -5 6 6 6 11 1 17 -2 13 -5z"/>
<path d="M1050 1849 c-14 -11 -59 -51 -100 -89 -41 -38 -93 -83 -115 -101 -22
-18 -32 -29 -23 -26 10 3 20 1 24 -4 7 -13 104 79 101 95 -1 6 6 10 15 8 9 -1
19 6 22 16 3 9 20 23 37 29 21 8 30 17 26 27 -4 11 -1 13 10 9 11 -4 14 -2 9
5 -4 7 -2 10 6 7 8 -3 25 6 38 20 26 28 17 34 -12 8 -18 -16 -18 -16 -12 0 8
22 5 21 -26 -4z m-185 -199 c-3 -5 -11 -10 -16 -10 -6 0 -7 5 -4 10 3 6 11 10
16 10 6 0 7 -4 4 -10z"/>
<path d="M1110 1831 c-50 -44 -51 -56 -3 -36 23 10 31 19 27 29 -4 11 0 16 11
16 9 0 23 7 31 15 14 13 13 15 -3 15 -10 0 -38 -18 -63 -39z m20 -15 c0 -2 -7
-7 -16 -10 -8 -3 -12 -2 -9 4 6 10 25 14 25 6z"/>
<path d="M1184 1839 c-13 -14 -21 -28 -17 -32 10 -10 25 -8 19 2 -3 5 3 20 14
32 11 13 19 20 20 15 0 -5 -7 -18 -17 -28 -10 -12 -12 -18 -4 -18 7 0 9 -5 4
-12 -4 -7 12 2 35 20 57 45 58 50 11 48 -29 -1 -47 -8 -65 -27z m56 -4 c-13
-14 -26 -23 -28 -20 -7 7 29 45 41 45 6 0 0 -11 -13 -25z"/>
<path d="M1287 1837 c-31 -27 -35 -35 -25 -46 11 -11 9 -12 -8 -7 -27 8 -53
-18 -29 -28 20 -7 118 72 108 87 -3 6 -1 7 4 4 6 -4 15 -1 21 6 24 28 -34 15
-71 -16z m13 -21 c0 -2 -7 -7 -16 -10 -8 -3 -12 -2 -9 4 6 10 25 14 25 6z
m-55 -46 c3 -5 1 -10 -4 -10 -6 0 -11 5 -11 10 0 6 2 10 4 10 3 0 8 -4 11 -10z"/>
<path d="M1479 1838 c-19 -15 -29 -28 -22 -28 6 0 20 -3 30 -6 15 -5 15 -4 3
5 -8 5 -11 13 -7 17 3 4 13 1 21 -5 13 -11 14 -9 11 11 -4 22 -2 24 25 20 17
-2 30 -2 30 1 0 2 -13 7 -29 9 -21 3 -38 -3 -62 -24z"/>
<path d="M1625 1860 c-3 -5 -1 -10 4 -10 6 0 11 5 11 10 0 6 -2 10 -4 10 -3 0
-8 -4 -11 -10z"/>
<path d="M761 1820 c-22 -22 -41 -45 -41 -52 0 -6 1 -9 3 -7 2 2 23 25 47 52
52 57 47 62 -9 7z"/>
<path d="M1720 1764 c-54 -37 -73 -55 -65 -62 3 -3 9 -2 13 4 12 18 82 67 88
61 3 -3 -12 -18 -33 -33 -21 -16 -42 -35 -46 -42 -5 -7 -12 -10 -18 -7 -12 8
-12 -2 2 -26 5 -11 14 -17 20 -14 5 4 9 1 9 -4 0 -6 -9 -11 -20 -11 -11 0 -20
-4 -20 -10 0 -20 26 -9 63 26 26 24 36 39 29 46 -6 6 -15 2 -26 -13 -9 -13
-16 -20 -16 -15 0 5 -7 3 -15 -4 -12 -10 -15 -10 -15 3 0 8 12 23 28 32 48 32
74 63 65 78 -7 12 -14 11 -43 -9z"/>
<path d="M997 1742 c-10 -10 -14 -22 -10 -27 5 -4 0 -5 -9 -2 -13 4 -15 2 -11
-11 3 -9 2 -14 -2 -9 -10 9 -85 -61 -85 -80 0 -7 -4 -13 -10 -13 -5 0 -18 -9
-28 -20 -12 -13 -25 -18 -35 -14 -24 9 -21 23 6 34 21 8 21 9 -5 7 -15 -1 -24
-5 -22 -9 3 -4 0 -8 -5 -8 -18 0 -12 -16 9 -26 19 -8 18 -11 -16 -47 -19 -20
-41 -35 -47 -31 -7 3 -4 -1 5 -9 10 -8 15 -17 11 -20 -3 -4 -1 -7 6 -7 7 0 11
6 8 14 -4 11 24 46 37 46 10 0 121 112 119 120 -2 6 3 10 11 10 7 0 16 10 19
22 4 12 9 19 13 16 3 -4 16 3 29 15 12 12 31 28 41 35 16 10 15 10 -6 1 -23
-11 -24 -11 -11 5 19 23 8 30 -12 8z m-87 -116 c0 -3 -4 -8 -10 -11 -5 -3 -10
-1 -10 4 0 6 5 11 10 11 6 0 10 -2 10 -4z"/>
<path d="M1197 1729 c-4 -15 -11 -19 -25 -15 -12 4 -26 0 -36 -9 -20 -20 -20
-26 -1 -19 22 9 18 -10 -7 -33 -15 -13 -34 -20 -55 -18 -18 1 -30 -2 -28 -5 3
-4 18 -7 34 -6 38 2 83 43 75 68 -3 10 -1 18 5 18 6 0 11 -5 11 -11 0 -6 13 0
29 13 15 13 26 26 24 31 -8 14 -21 7 -26 -14z"/>
<path d="M1751 1717 c-6 -8 -8 -16 -5 -20 10 -9 34 4 34 19 0 18 -14 18 -29 1z"/>
<path d="M1310 1687 c-14 -12 -38 -32 -54 -45 -16 -12 -26 -25 -23 -28 3 -4
13 1 22 10 24 23 31 20 10 -4 -10 -12 -25 -18 -33 -15 -19 7 -125 -85 -353
-306 -37 -37 -70 -64 -73 -61 -3 3 -6 -3 -6 -13 0 -13 3 -15 13 -7 14 12 151
140 185 174 13 13 31 22 40 21 10 -1 12 0 5 3 -21 9 -14 24 10 21 16 -1 22 3
21 16 -1 13 3 16 16 12 10 -3 21 -1 25 4 4 7 -1 8 -12 4 -16 -6 -16 -5 -5 10
8 8 19 14 26 11 6 -2 25 9 41 26 16 16 24 30 18 30 -6 0 -18 -11 -27 -25 -9
-14 -21 -25 -27 -25 -16 0 6 24 55 62 23 17 35 25 29 18 -27 -30 -11 -30 22
-1 41 36 49 38 40 12 -3 -11 -1 -23 6 -27 7 -4 10 -2 7 7 -3 8 5 26 19 40 21
23 22 27 9 38 -12 10 -13 16 -3 25 7 7 19 15 27 18 8 2 10 7 4 10 -5 4 -20 -4
-34 -15z m-2 -64 c-16 -20 -25 -15 -22 10 1 12 3 23 3 25 1 1 7 -3 15 -10 10
-9 11 -17 4 -25z m-243 -173 c3 -5 1 -10 -4 -10 -6 0 -11 5 -11 10 0 6 2 10 4
10 3 0 8 -4 11 -10z"/>
<path d="M990 1665 c-13 -14 -19 -25 -13 -25 6 0 16 7 23 15 7 9 19 14 26 11
8 -3 11 0 7 10 -7 20 -16 18 -43 -11z"/>
<path d="M1766 1671 c-4 -6 -1 -11 6 -12 7 -1 3 -4 -10 -7 -27 -8 -31 -25 -6
-30 11 -3 14 0 9 9 -5 8 -4 10 4 5 6 -4 14 0 17 9 8 20 -10 42 -20 26z"/>
<path d="M890 1570 c-61 -55 -64 -60 -48 -76 9 -9 27 -17 40 -18 15 -1 23 -7
22 -18 -1 -10 4 -14 12 -11 8 3 14 2 14 -2 0 -12 -64 -65 -78 -65 -8 0 -10 -5
-6 -12 5 -8 2 -9 -9 -5 -10 4 -16 2 -14 -6 1 -7 -3 -11 -10 -10 -8 2 -10 -4
-6 -15 3 -9 3 -14 -2 -10 -4 4 -21 -8 -38 -27 -16 -19 -33 -32 -38 -30 -10 7
-33 -34 -24 -43 3 -3 8 4 12 16 5 21 6 21 20 5 8 -10 12 -13 9 -7 -3 7 41 56
99 109 l104 98 -32 28 c-20 18 -39 26 -49 23 -10 -3 -18 -1 -18 5 0 6 3 11 8
11 4 0 16 14 27 30 11 17 26 28 32 25 7 -2 12 -1 12 3 -3 18 2 26 10 14 7 -11
9 -10 14 3 4 9 3 13 -3 10 -14 -9 -12 9 2 23 7 7 10 12 8 12 -3 -1 -34 -27
-70 -60z"/>
<path d="M1724 1567 c-74 -64 -84 -79 -63 -86 6 -2 9 1 5 7 -7 12 45 52 68 52
9 0 16 5 16 11 0 5 -6 7 -12 3 -9 -5 -9 -2 1 9 7 9 19 17 25 17 6 0 4 -5 -4
-10 -13 -8 -13 -10 2 -10 9 0 18 5 20 11 2 6 4 -8 5 -30 2 -35 -2 -43 -20 -50
-13 -5 -29 -17 -37 -27 -14 -17 -14 -17 11 -1 14 10 34 15 43 11 14 -5 16 3
16 61 0 50 -3 64 -12 59 -9 -5 -8 -2 1 9 31 38 2 22 -65 -36z"/>
<path d="M1054 1588 l-19 -23 25 20 c14 11 27 21 29 22 2 2 0 3 -6 3 -5 0 -18
-10 -29 -22z"/>
<path d="M951 1561 c-8 -5 -9 -11 -3 -15 5 -3 12 1 16 9 6 17 6 18 -13 6z"/>
<path d="M1252 1546 c7 -8 17 -12 22 -9 4 3 2 9 -5 14 -22 13 -31 11 -17 -5z"/>
<path d="M1170 1499 c-30 -28 -46 -46 -35 -41 20 10 104 92 94 92 -2 0 -29
-23 -59 -51z"/>
<path d="M1756 1534 c-3 -9 -13 -14 -21 -11 -10 4 -12 1 -8 -10 5 -13 2 -15
-12 -10 -15 6 -16 5 -5 -8 15 -18 -1 -20 -18 -3 -8 8 -12 9 -12 1 0 -6 5 -13
11 -15 7 -2 5 -9 -5 -17 -11 -9 -16 -10 -16 -2 0 6 -7 11 -15 11 -8 0 -15 -5
-15 -11 0 -5 5 -7 10 -4 6 3 10 1 10 -6 0 -6 8 -9 20 -6 11 3 22 2 25 -2 6
-10 -35 -54 -43 -47 -3 4 3 13 14 21 18 13 18 14 -3 8 -17 -4 -23 -13 -23 -35
l0 -29 45 32 c53 38 93 79 77 79 -7 0 -21 -9 -31 -19 -14 -14 -22 -16 -30 -8
-8 8 0 22 30 53 22 23 36 44 31 48 -5 3 -13 -1 -16 -10z"/>
<path d="M1543 1533 c-7 -3 -13 -10 -13 -16 0 -8 4 -7 12 1 20 20 32 13 13 -8
-10 -11 -22 -17 -26 -14 -5 3 -9 0 -9 -5 0 -22 31 -6 57 29 10 13 9 16 -5 17
-9 0 -23 -2 -29 -4z"/>
<path d="M1210 1499 c-19 -15 -29 -29 -22 -29 6 0 12 5 12 10 0 6 5 10 11 10
12 0 43 29 38 35 -2 2 -20 -10 -39 -26z"/>
<path d="M1259 1503 c-13 -16 -12 -17 4 -4 9 7 17 15 17 17 0 8 -8 3 -21 -13z"/>
<path d="M1729 1396 c-69 -57 -130 -146 -99 -146 6 0 10 7 10 15 0 9 8 18 18
22 9 3 29 19 44 35 16 16 34 26 40 23 7 -4 5 0 -4 8 -25 20 -22 29 5 23 12 -3
16 -3 9 0 -22 10 -3 22 30 18 21 -3 28 -1 19 5 -8 5 -11 16 -6 30 3 11 5 21 3
21 -2 0 -34 -24 -69 -54z m-19 -46 c-8 -5 -12 -10 -7 -10 4 0 -1 -8 -10 -18
-10 -11 -22 -17 -26 -15 -9 5 34 53 48 53 6 0 3 -5 -5 -10z"/>
<path d="M1083 1426 c-6 -8 -9 -17 -6 -20 4 -3 2 -6 -4 -6 -6 0 -19 -12 -29
-27 l-18 -28 36 30 c19 17 33 32 32 34 -2 2 1 10 7 18 15 17 -2 16 -18 -1z"/>
<path d="M864 1336 c-133 -133 -186 -195 -180 -211 2 -7 0 -16 -7 -19 -9 -5
-9 -7 1 -12 6 -3 12 -10 12 -15 0 -6 -3 -8 -8 -5 -4 2 -8 -9 -8 -25 -1 -25 1
-28 13 -18 11 10 11 14 1 20 -7 5 -8 9 -3 9 6 0 17 -5 25 -10 12 -8 11 -12 -8
-30 -12 -11 -22 -24 -22 -28 0 -9 109 101 110 111 0 4 -9 2 -19 -5 -11 -7 -17
-16 -15 -20 7 -11 -8 -10 -26 2 -9 6 -17 5 -22 -3 -5 -8 -8 -5 -8 7 0 11 16
34 35 51 19 18 31 35 28 39 -4 3 -19 -7 -35 -24 -15 -17 -28 -26 -28 -21 0 16
60 82 168 187 52 50 93 96 91 101 -2 5 -45 -32 -95 -81z m-124 -270 c0 -3 -4
-8 -10 -11 -5 -3 -10 -1 -10 4 0 6 5 11 10 11 6 0 10 -2 10 -4z"/>
<path d="M1000 1335 c-7 -9 -21 -13 -31 -10 -9 3 -20 2 -22 -3 -3 -4 6 -7 21
-6 39 2 39 2 46 19 7 19 2 19 -14 0z"/>
<path d="M1770 1334 c0 -8 -5 -12 -10 -9 -6 4 -9 1 -8 -6 2 -6 -3 -14 -11 -17
-10 -3 -11 0 -5 9 6 10 1 9 -16 -3 -14 -9 -24 -21 -22 -27 1 -6 -3 -11 -8 -11
-6 0 -15 -10 -20 -22 -5 -13 -9 -17 -9 -9 -1 11 -4 11 -16 1 -8 -7 -12 -16 -9
-21 3 -5 -2 -9 -10 -9 -8 0 -21 -8 -28 -17 -7 -10 -21 -24 -31 -32 -15 -12
-19 -12 -32 5 -13 17 -14 18 -15 2 0 -10 4 -18 9 -18 14 0 21 -29 9 -36 -7 -5
-8 -2 -3 6 5 8 4 11 -2 7 -6 -4 -13 -18 -16 -33 -4 -20 17 -4 98 78 56 56 100
109 98 116 -3 6 -1 12 5 12 6 0 12 -6 15 -12 3 -9 11 -4 25 12 20 23 29 50 17
50 -3 0 -5 -7 -5 -16z"/>
<path d="M1000 1189 c-71 -71 -130 -135 -130 -141 0 -6 9 -3 20 7 11 10 20 13
20 7 0 -6 -9 -16 -20 -22 -11 -6 -20 -8 -20 -4 0 3 -6 1 -14 -6 -8 -6 -12 -18
-9 -26 4 -12 14 -7 44 22 36 35 84 54 76 30 -2 -6 -11 -10 -20 -10 -8 1 -35
-19 -59 -44 -24 -25 -35 -42 -25 -38 12 4 8 -6 -14 -29 -38 -40 -54 -38 -18 3
13 15 2 7 -24 -18 -45 -42 -68 -72 -27 -35 11 10 23 15 27 11 8 -7 -38 -42
-50 -38 -5 1 -6 -2 -2 -8 4 -6 2 -17 -5 -25 -15 -18 7 -32 23 -15 9 10 9 11
-2 5 -10 -5 -12 -4 -7 4 4 6 11 9 15 7 4 -3 45 33 91 79 46 46 88 81 93 78 6
-3 7 -1 4 4 -4 6 3 19 15 29 21 19 21 19 14 0 -7 -19 -6 -19 14 -1 25 22 26
29 3 21 -10 -4 4 16 32 43 47 48 65 60 65 43 0 -4 -10 -18 -23 -32 -13 -14
-22 -31 -19 -38 5 -16 -15 -16 -22 1 -3 6 -4 3 -1 -8 3 -14 -5 -27 -28 -42
-17 -13 -26 -23 -19 -23 6 0 12 -5 12 -11 0 -6 -7 -9 -14 -6 -10 4 -13 1 -9
-9 3 -7 1 -14 -5 -14 -6 0 -13 6 -15 13 -4 9 -6 9 -6 -1 -1 -7 -5 -11 -9 -8
-15 9 -9 -29 6 -40 12 -9 2 -23 -59 -82 -41 -39 -69 -72 -63 -72 6 0 43 34 83
76 40 41 76 73 79 69 3 -3 -9 -20 -26 -38 -25 -25 -30 -39 -26 -61 3 -20 1
-26 -7 -20 -7 4 -9 3 -5 -4 3 -6 -2 -15 -11 -21 -10 -6 -13 -10 -8 -10 11 0
45 23 45 31 0 5 104 109 202 202 48 46 63 66 53 70 -8 3 -14 0 -12 -7 1 -7 -6
-11 -17 -9 -13 3 -17 -1 -13 -12 3 -8 2 -18 -3 -21 -6 -4 -10 -1 -10 4 0 6
-11 1 -25 -11 -24 -21 -35 -46 -15 -33 6 4 7 -1 3 -11 -4 -11 -8 -13 -11 -6
-7 21 -21 13 -48 -28 -15 -22 -29 -38 -33 -36 -3 2 -15 -5 -25 -15 -13 -12
-15 -19 -7 -19 7 0 3 -9 -10 -19 -23 -19 -39 -19 -39 0 0 5 7 9 16 9 8 0 13 4
10 8 -3 5 15 28 40 53 24 24 42 49 40 56 -5 13 103 127 113 118 2 -3 -17 -29
-45 -58 -27 -29 -10 -13 39 35 48 48 87 90 87 93 0 15 -49 -21 -52 -38 -2 -11
-9 -22 -17 -25 -9 -3 -11 0 -6 8 11 18 -10 5 -67 -43 -47 -39 -65 -68 -59 -96
1 -8 -3 -12 -12 -8 -9 3 -14 0 -13 -10 0 -9 -5 -18 -13 -21 -8 -3 -11 0 -7 7
4 7 2 9 -7 5 -28 -10 -25 12 4 31 33 23 47 47 21 38 -15 -6 -15 -5 -3 10 8 10
16 15 18 13 9 -8 54 44 48 54 -3 6 1 10 10 10 9 0 14 4 10 9 -3 5 0 13 6 16 6
4 8 17 5 30 -5 18 6 34 55 80 45 43 63 55 72 46 16 -16 23 -14 23 8 0 12 -5
17 -15 13 -10 -4 -12 -1 -6 9 4 8 -8 -1 -28 -20 -20 -19 -40 -31 -44 -27 -4 4
3 16 17 26 14 11 20 20 14 20 -6 0 -34 -23 -61 -50 -28 -28 -42 -48 -32 -45
10 4 19 4 19 2 0 -9 -267 -277 -275 -277 -5 0 4 13 19 29 15 15 26 32 25 37
-3 14 12 44 23 44 5 0 6 -6 2 -12 -4 -7 32 25 79 71 48 47 84 87 82 90 -3 2
-13 -3 -23 -12 -10 -10 -21 -15 -24 -12 -3 3 -13 -4 -23 -15 -26 -29 -40 -25
-16 6 11 14 17 32 14 40 -4 10 0 12 11 8 12 -5 15 -2 10 10 -4 11 -2 16 7 14
9 -2 13 4 11 15 -3 19 13 23 23 6 5 -7 13 -4 25 8 11 12 13 20 6 25 -19 12 2
20 23 8 21 -11 31 3 10 15 -6 4 -8 13 -5 21 3 8 3 14 1 14 -3 0 -63 -59 -135
-131z m95 61 c-3 -5 -11 -10 -16 -10 -6 0 -7 5 -4 10 3 6 11 10 16 10 6 0 7
-4 4 -10z m75 -30 c0 -5 -9 -14 -20 -20 -22 -12 -27 -1 -8 18 14 14 28 16 28
2z m-175 -78 c-16 -12 -41 -47 -27 -38 7 4 12 2 12 -5 0 -7 14 0 31 17 24 22
29 24 21 8 -6 -12 -23 -29 -38 -39 -14 -9 -23 -12 -20 -6 4 6 2 11 -3 11 -6 0
-11 -4 -11 -9 0 -5 -12 -8 -26 -8 -25 0 -25 1 17 43 24 24 45 41 48 38 3 -3 1
-8 -4 -12z m-28 -209 c-4 -3 -1 -13 6 -22 11 -14 10 -14 -5 -2 -16 12 -16 31
-1 31 4 0 3 -3 0 -7z m-142 -58 c-15 -15 -29 -24 -32 -21 -3 3 8 16 23 30 38
32 45 24 9 -9z"/>
<path d="M1774 1299 c-19 -22 -19 -22 4 -8 12 8 22 17 22 21 0 12 -6 9 -26
-13z"/>
<path d="M894 1270 c-31 -27 -31 -28 -12 -45 11 -9 23 -14 26 -10 4 3 0 10 -8
15 -12 7 -10 13 9 34 34 36 23 40 -15 6z"/>
<path d="M942 1280 c-8 -13 -8 -20 -2 -20 6 0 13 7 17 15 9 24 -1 27 -15 5z"/>
<path d="M1521 1273 c10 -11 10 -14 2 -9 -7 4 -13 2 -13 -3 0 -16 9 -14 37 9
l26 20 -33 0 c-29 0 -31 -2 -19 -17z"/>
<path d="M1558 1259 c-21 -17 -38 -35 -38 -41 0 -17 28 -38 44 -32 18 7 22 24
6 24 -5 0 -10 -5 -10 -11 0 -8 -5 -8 -15 1 -8 7 -15 17 -15 22 0 6 7 8 15 4 9
-3 15 0 15 10 0 11 6 14 16 10 8 -3 12 -2 9 4 -3 6 -1 10 5 10 8 0 10 -9 6
-26 -6 -22 -5 -23 7 -12 11 9 12 20 5 40 -6 16 -11 28 -11 28 -1 -1 -19 -14
-39 -31z"/>
<path d="M885 1171 c-206 -203 -208 -206 -202 -252 7 -51 31 -80 49 -60 11 12
9 13 -7 8 -15 -5 -14 -3 5 11 53 36 119 104 114 117 -3 8 -12 11 -20 8 -24 -9
-15 10 23 49 20 21 33 41 28 45 -4 5 -10 2 -12 -5 -3 -6 -10 -9 -15 -6 -6 4
-8 3 -5 -3 8 -13 -34 -58 -55 -59 -21 -2 -22 5 -3 30 7 10 18 15 24 12 5 -4
13 -1 17 5 4 8 3 9 -4 5 -23 -14 -12 5 23 39 19 19 40 35 46 35 7 0 9 3 6 7
-4 3 2 12 13 20 17 12 66 73 58 73 -2 0 -39 -36 -83 -79z m-98 -166 c-7 -7
-19 -22 -28 -33 -9 -11 -23 -22 -30 -25 -12 -4 -11 -7 1 -16 11 -8 16 -7 18 4
2 8 8 15 13 15 5 0 9 5 9 11 0 12 25 39 35 39 4 0 4 -7 1 -16 -6 -15 -4 -15
11 -3 10 7 -9 -13 -42 -44 -33 -31 -63 -57 -68 -57 -13 0 -2 25 11 26 25 3 27
5 12 14 -9 5 -19 5 -27 -2 -18 -14 -16 3 3 30 8 12 13 22 10 22 -3 0 3 11 15
24 11 13 31 24 44 24 19 0 21 -3 12 -13z"/>
<path d="M791 1164 c-35 -35 -62 -67 -59 -69 5 -5 138 122 138 131 0 13 -23
-5 -79 -62z"/>
<path d="M1184 1195 c-21 -19 -34 -34 -27 -35 6 0 18 9 26 20 8 11 16 18 19
15 3 -3 11 1 18 10 25 30 3 24 -36 -10z"/>
<path d="M1250 1218 c0 -7 -9 -19 -20 -26 -19 -12 -28 -33 -12 -31 15 1 52 58
42 64 -5 3 -10 0 -10 -7z"/>
<path d="M776 1201 c-4 -7 -5 -15 -2 -18 9 -9 19 4 14 18 -4 11 -6 11 -12 0z"/>
<path d="M1250 1159 c0 -5 5 -7 10 -4 6 3 10 8 10 11 0 2 -4 4 -10 4 -5 0 -10
-5 -10 -11z"/>
<path d="M1231 1081 c-7 -5 -12 -13 -10 -18 2 -5 12 -1 22 9 18 19 12 24 -12
9z"/>
<path d="M1244 1059 c-3 -6 -2 -15 3 -20 5 -5 9 -1 9 11 0 23 -2 24 -12 9z"/>
<path d="M927 894 c4 -10 0 -12 -13 -7 -13 5 -15 3 -9 -7 6 -10 4 -12 -8 -7
-11 4 -14 2 -11 -7 7 -18 -12 -30 -22 -15 -5 8 -3 9 6 4 9 -5 11 -4 6 4 -10
16 -25 4 -21 -18 2 -10 -1 -24 -7 -32 -8 -11 -8 -10 -4 5 6 16 4 17 -9 6 -18
-15 -20 0 -2 20 6 8 -5 -1 -25 -20 -44 -41 -47 -46 -13 -24 14 9 25 12 25 6 0
-5 -7 -13 -16 -16 -8 -3 -12 -11 -8 -18 5 -8 13 -4 25 11 10 12 22 22 26 22 4
0 29 22 56 49 35 35 43 49 33 53 -10 4 -13 1 -9 -9z"/>
<path d="M1100 891 c0 -6 -32 -42 -71 -80 -40 -39 -66 -71 -59 -71 18 0 140
126 140 145 0 8 -2 15 -5 15 -3 0 -5 -4 -5 -9z"/>
<path d="M895 780 c-16 -16 -26 -32 -23 -36 6 -6 58 46 58 58 0 13 -5 10 -35
-22z"/>
<path d="M1472 1684 c-14 -16 -5 -18 17 -5 7 5 9 11 5 14 -5 3 -15 -1 -22 -9z"/>
<path d="M1521 1624 c0 -11 3 -14 6 -6 3 7 2 16 -1 19 -3 4 -6 -2 -5 -13z"/>
<path d="M1412 1590 c-7 -11 -8 -20 -3 -20 9 0 24 30 18 36 -1 2 -8 -6 -15
-16z"/>
<path d="M1346 1467 c3 -10 9 -15 12 -12 3 3 0 11 -7 18 -10 9 -11 8 -5 -6z"/>
<path d="M1285 1409 c-4 -6 -5 -12 -2 -15 2 -3 7 2 10 11 7 17 1 20 -8 4z"/>
<path d="M1328 1387 c-3 -19 -2 -25 4 -19 6 6 8 18 6 28 -3 14 -5 12 -10 -9z"/>
<path d="M1780 1049 c0 -5 5 -7 10 -4 6 3 10 8 10 11 0 2 -4 4 -10 4 -5 0 -10
-5 -10 -11z"/>
<path d="M1640 970 c0 -5 5 -10 10 -10 6 0 10 5 10 10 0 6 -4 10 -10 10 -5 0
-10 -4 -10 -10z"/>
<path d="M1740 848 c-58 -63 -88 -105 -57 -80 9 8 21 11 27 7 6 -4 9 -3 8 2
-1 4 17 27 40 51 23 24 42 52 42 63 0 10 -1 18 -2 18 -2 -1 -28 -28 -58 -61z
m30 -2 c0 -2 -7 -7 -16 -10 -8 -3 -12 -2 -9 4 6 10 25 14 25 6z"/>
<path d="M1447 799 c-38 -31 -47 -49 -24 -49 6 0 27 18 45 40 40 48 31 52 -21
9z"/>
<path d="M1510 779 c0 -5 5 -7 10 -4 6 3 10 8 10 11 0 2 -4 4 -10 4 -5 0 -10
-5 -10 -11z"/>
<path d="M651 1871 c-7 -5 -9 -11 -5 -14 5 -3 15 1 22 9 14 16 5 18 -17 5z"/>
<path d="M1800 1870 c-9 -6 -10 -10 -3 -10 6 0 15 5 18 10 8 12 4 12 -15 0z"/>
<path d="M1820 1855 c0 -5 5 -17 10 -25 5 -8 10 -10 10 -5 0 6 -5 17 -10 25
-5 8 -10 11 -10 5z"/>
<path d="M1363 703 c9 -2 23 -2 30 0 6 3 -1 5 -18 5 -16 0 -22 -2 -12 -5z"/>
<path d="M1722 701 c-11 -7 -11 -9 0 -14 9 -3 15 1 15 9 0 8 -1 14 -1 14 -1 0
-7 -4 -14 -9z"/>
<path d="M726 692 c-3 -5 1 -9 9 -9 8 0 12 4 9 9 -3 4 -7 8 -9 8 -2 0 -6 -4
-9 -8z"/>
<path d="M767 689 c7 -7 15 -10 18 -7 3 3 -2 9 -12 12 -14 6 -15 5 -6 -5z"/>
<path d="M1778 683 c7 -3 16 -2 19 1 4 3 -2 6 -13 5 -11 0 -14 -3 -6 -6z"/>
<path d="M462 590 c-32 -13 -52 -68 -52 -144 0 -59 -2 -65 -22 -68 -30 -4 -32
-43 -3 -43 17 0 22 -10 30 -65 9 -55 13 -65 30 -65 18 0 20 6 17 65 l-4 65 49
0 c41 0 48 3 48 20 0 17 -8 20 -50 23 l-50 3 3 62 c1 34 5 72 7 85 6 24 33 30
52 11 15 -15 43 -4 43 16 0 12 -58 48 -72 44 -2 0 -13 -4 -26 -9z m-12 -235
c0 -8 -4 -16 -9 -19 -5 -3 -8 5 -8 19 0 14 3 22 8 19 5 -3 9 -11 9 -19z"/>
<path d="M1283 592 c-8 -5 -12 -63 -14 -197 -2 -187 -1 -190 20 -193 11 -2 21
1 21 7 0 7 8 7 26 1 58 -22 112 -2 140 51 18 36 18 122 -1 158 -26 51 -82 56
-126 12 l-29 -29 0 83 c0 107 -7 126 -37 107z m151 -194 c29 -41 12 -133 -28
-147 -34 -13 -86 -2 -86 19 0 29 48 128 67 139 26 15 30 14 47 -11z m-107 -32
c-8 -16 -14 -20 -19 -13 -4 6 -2 17 4 24 18 22 27 15 15 -11z m-20 -121 c0 -8
-4 -15 -9 -15 -10 0 -11 14 -1 23 9 10 10 9 10 -8z"/>
<path d="M1996 592 c-2 -4 -5 -92 -7 -197 l-4 -190 23 -3 c21 -3 22 0 22 62
l0 66 93 -65 c50 -35 97 -68 103 -74 7 -5 15 -1 24 12 10 17 10 22 -3 31 -9 6
-51 35 -95 65 l-79 55 58 38 c41 26 57 42 53 53 -9 24 -30 18 -92 -24 l-57
-40 -3 104 c-2 78 -6 104 -17 109 -8 3 -16 2 -19 -2z m49 -244 c-11 -6 -25
-19 -32 -27 -7 -9 -12 -11 -13 -6 0 15 13 31 30 38 26 10 36 7 15 -5z"/>
<path d="M403 575 c0 -8 4 -12 9 -9 5 3 6 10 3 15 -9 13 -12 11 -12 -6z"/>
<path d="M1211 564 c0 -11 3 -14 6 -6 3 7 2 16 -1 19 -3 4 -6 -2 -5 -13z"/>
<path d="M650 516 c0 -2 7 -7 16 -10 8 -3 12 -2 9 4 -6 10 -25 14 -25 6z"/>
<path d="M763 513 c-16 -6 -17 -29 -1 -39 7 -4 8 -3 4 5 -4 6 -2 18 4 26 13
16 12 16 -7 8z"/>
<path d="M820 510 c-9 -6 -10 -10 -3 -10 6 0 15 5 18 10 8 12 4 12 -15 0z"/>
<path d="M857 509 c7 -7 15 -10 18 -7 3 3 -2 9 -12 12 -14 6 -15 5 -6 -5z"/>
<path d="M1595 511 c-3 -5 -2 -12 3 -15 5 -3 9 1 9 9 0 17 -3 19 -12 6z"/>
<path d="M1650 508 c0 -4 4 -8 9 -8 6 0 12 4 15 8 3 5 -1 9 -9 9 -8 0 -15 -4
-15 -9z"/>
<path d="M2146 512 c-3 -4 4 -9 15 -9 23 -2 25 3 4 10 -8 4 -16 3 -19 -1z"/>
<path d="M2226 507 c3 -10 9 -15 12 -12 3 3 0 11 -7 18 -10 9 -11 8 -5 -6z"/>
<path d="M1000 502 c0 -5 7 -15 15 -22 8 -7 15 -9 15 -6 0 4 -7 14 -15 22 -8
9 -15 11 -15 6z"/>
<path d="M1855 500 c-16 -7 -17 -9 -3 -9 9 -1 20 4 23 9 7 11 7 11 -20 0z"/>
<path d="M1087 493 c-10 -9 -9 -23 1 -23 5 0 9 7 9 15 0 17 -1 18 -10 8z"/>
<path d="M2101 491 c-8 -5 -9 -11 -3 -15 5 -3 15 1 22 9 14 16 3 20 -19 6z"/>
<path d="M800 461 c-7 -15 -7 -22 2 -27 7 -4 10 -4 6 1 -4 4 -3 16 3 26 5 11
7 19 5 19 -3 0 -10 -9 -16 -19z"/>
<path d="M660 452 c-47 -23 -80 -85 -81 -151 -2 -55 20 -100 49 -102 52 -4 98
22 87 48 -2 8 0 11 5 8 6 -3 10 -15 10 -26 0 -22 26 -37 40 -23 6 6 4 53 -5
119 -8 59 -12 112 -9 116 13 22 -58 31 -96 11z m49 -97 c-10 -99 -54 -148 -80
-91 -17 36 -2 94 31 128 47 46 57 38 49 -37z m33 -69 c2 -19 0 -32 -4 -30 -8
5 -12 64 -4 64 2 0 6 -15 8 -34z"/>
<path d="M873 455 c-77 -33 -102 -158 -43 -220 13 -14 26 -22 31 -20 4 3 10 1
14 -5 3 -5 30 -10 59 -10 40 0 57 5 71 20 27 30 7 46 -37 30 -69 -25 -137 26
-124 92 12 67 81 104 106 58 13 -24 36 -26 44 -4 7 19 -45 74 -71 74 -10 -1
-32 -7 -50 -15z"/>
<path d="M1111 452 c-49 -25 -73 -74 -68 -140 5 -75 36 -104 114 -110 50 -3
61 -1 77 17 28 30 9 49 -33 32 -34 -15 -66 -7 -98 22 -32 28 -29 37 7 24 26
-10 37 -9 68 8 68 37 80 114 23 148 -36 21 -48 21 -90 -1z m77 -61 c2 -13 -1
-28 -7 -34 -10 -10 -101 -28 -101 -20 0 9 23 49 38 66 23 26 66 19 70 -12z"/>
<path d="M1580 452 c-46 -23 -70 -67 -72 -133 -4 -91 54 -141 138 -118 99 28
101 224 2 258 -17 6 -31 11 -32 11 -1 0 -17 -8 -36 -18z m76 -53 c29 -32 26
-115 -5 -140 -45 -37 -89 -22 -98 34 -7 46 1 77 27 105 26 28 51 28 76 1z"/>
<path d="M1616 283 c-6 -14 -5 -15 5 -6 7 7 10 15 7 18 -3 3 -9 -2 -12 -12z"/>
<path d="M1820 459 c-14 -5 -36 -26 -50 -46 -20 -30 -25 -49 -25 -101 0 -57 3
-66 28 -88 43 -37 114 -34 152 6 85 89 3 269 -105 229z m76 -64 c19 -30 22
-92 5 -123 -14 -27 -55 -38 -85 -24 -59 27 -25 172 40 172 14 0 30 -10 40 -25z"/>
<path d="M333 432 c-7 -4 -9 -13 -4 -21 6 -9 10 -7 14 8 3 12 4 21 4 21 -1 0
-7 -4 -14 -8z"/>
<path d="M498 433 c6 -2 10 -9 7 -14 -4 -5 1 -6 10 -2 13 5 14 7 3 14 -7 5
-17 8 -23 8 -5 0 -4 -3 3 -6z"/>
<path d="M2210 386 c0 -8 4 -17 9 -20 5 -4 7 3 4 14 -6 23 -13 26 -13 6z"/>
<path d="M325 380 c3 -5 8 -10 11 -10 2 0 4 5 4 10 0 6 -5 10 -11 10 -5 0 -7
-4 -4 -10z"/>
<path d="M325 330 c3 -5 8 -10 11 -10 2 0 4 5 4 10 0 6 -5 10 -11 10 -5 0 -7
-4 -4 -10z"/>
<path d="M2205 320 c3 -5 8 -10 11 -10 2 0 4 5 4 10 0 6 -5 10 -11 10 -5 0 -7
-4 -4 -10z"/>
<path d="M2293 222 c-8 -14 -8 -19 1 -19 7 0 13 9 13 19 1 10 1 18 0 18 -1 0
-7 -8 -14 -18z"/>
<path d="M2070 220 c0 -5 5 -10 11 -10 5 0 7 5 4 10 -3 6 -8 10 -11 10 -2 0
-4 -4 -4 -10z"/>
<path d="M2110 210 c-9 -6 -10 -10 -3 -10 6 0 15 5 18 10 8 12 4 12 -15 0z"/>
<path d="M918 173 c7 -3 16 -2 19 1 4 3 -2 6 -13 5 -11 0 -14 -3 -6 -6z"/>
<path d="M1148 173 c7 -3 16 -2 19 1 4 3 -2 6 -13 5 -11 0 -14 -3 -6 -6z"/>
<path d="M1250 130 c0 -5 5 -10 11 -10 5 0 7 5 4 10 -3 6 -8 10 -11 10 -2 0
-4 -4 -4 -10z"/>
</g>
</svg>
