<?xml version="1.0" standalone="no"?>
<!DOCTYPE svg PUBLIC "-//W3C//DTD SVG 20010904//EN"
 "http://www.w3.org/TR/2001/REC-SVG-20010904/DTD/svg10.dtd">
<svg version="1.0" xmlns="http://www.w3.org/2000/svg"
 width="300.000000pt" height="201.000000pt" viewBox="0 0 300.000000 201.000000"
 preserveAspectRatio="xMidYMid meet">
<metadata>
Created by potrace 1.10, written by Peter Selinger 2001-2011
</metadata>
<g transform="translate(0.000000,201.000000) scale(0.100000,-0.100000)"
fill="#a52a2a" stroke="none">
<path d="M0 1930 c0 -20 7 -20 1500 -20 1493 0 1500 0 1500 20 0 20 -7 20
-1500 20 -1493 0 -1500 0 -1500 -20z"/>
<path d="M154 1846 c-37 -13 -64 -34 -64 -50 0 -6 5 -4 10 4 7 11 9 0 9 -35
-1 -27 -5 -55 -11 -62 -6 -7 -5 -14 2 -18 7 -4 7 -13 -1 -27 -8 -15 -8 -19 0
-14 8 5 11 -26 10 -106 0 -72 -3 -106 -9 -93 -6 13 -9 -9 -9 -67 -1 -49 3 -88
8 -88 6 0 9 -18 9 -40 0 -22 -4 -40 -9 -40 -5 0 -4 -10 3 -21 11 -18 11 -23 0
-26 -10 -4 -10 -8 -1 -19 9 -11 9 -18 -1 -29 -9 -10 -9 -15 -1 -15 7 0 10 -23
9 -67 l-1 -68 -7 60 c-4 33 -7 -101 -8 -298 -2 -284 1 -357 10 -351 10 6 10 4
0 -7 -14 -16 -16 -99 -2 -99 6 0 10 -5 10 -11 0 -5 -5 -7 -11 -3 -7 4 -7 -1 1
-16 6 -12 9 -28 6 -36 -3 -8 -2 -14 2 -14 4 -1 71 -2 150 -4 78 -2 146 -6 149
-10 3 -3 490 -6 1081 -6 954 0 1073 2 1062 15 -15 18 -7 19 20 3 17 -11 22
-10 29 0 6 10 14 10 36 2 21 -8 30 -8 36 1 6 10 11 10 24 -1 12 -10 18 -11 24
-2 4 7 12 8 21 2 8 -6 26 -9 40 -9 23 0 23 1 5 9 -19 8 -19 9 3 9 12 1 22 -3
22 -8 0 -13 46 -7 64 9 14 11 16 75 16 551 0 353 -3 539 -10 539 -5 0 -10 5
-10 11 0 5 4 7 10 4 6 -4 10 38 10 120 0 82 -4 124 -10 120 -5 -3 -10 -1 -10
4 0 6 5 11 10 11 6 0 10 47 10 120 0 71 -4 120 -10 120 -5 0 -7 7 -4 15 4 8 1
22 -6 30 -11 13 -177 15 -1349 14 -967 -1 -1345 -5 -1367 -13z m79 -13 c-3 -7
-1 -13 5 -13 5 0 12 7 16 15 3 8 11 15 18 14 10 0 10 -2 1 -6 -7 -2 -13 -9
-13 -14 0 -11 23 -7 32 6 5 7 8 6 8 0 0 -6 9 -11 21 -12 15 -1 19 2 15 15 -5
15 -5 15 8 0 7 -10 25 -18 39 -18 20 0 24 -4 20 -20 -3 -11 -10 -17 -17 -13
-6 3 -6 0 2 -8 6 -7 12 -23 12 -35 0 -21 61 -76 141 -126 14 -9 34 -24 43 -33
9 -9 16 -14 16 -11 0 7 114 -69 142 -94 27 -25 42 -36 58 -43 8 -4 34 -20 56
-35 23 -15 61 -40 85 -56 24 -16 46 -32 49 -35 3 -4 29 -22 58 -40 30 -19 59
-39 66 -45 6 -6 27 -20 46 -30 19 -10 45 -28 58 -39 12 -12 37 -30 56 -41 60
-37 151 -101 158 -111 4 -5 12 -11 18 -11 5 -1 11 -2 13 -4 10 -8 57 -9 57 0
0 6 5 8 10 5 6 -3 10 -2 10 3 0 5 28 27 63 50 34 23 87 59 117 82 30 22 64 44
76 49 11 5 34 21 52 36 18 15 32 23 32 18 0 -4 4 -3 8 3 9 15 211 154 223 154
5 0 9 5 9 10 0 6 7 10 15 10 8 0 15 5 15 10 0 6 7 10 15 10 8 0 15 4 15 9 0 5
8 12 18 15 9 3 33 19 52 36 19 16 38 30 41 30 3 0 19 11 35 25 16 14 34 25 41
25 7 0 28 14 46 30 19 17 39 30 45 30 6 0 16 8 21 18 6 9 11 13 11 7 0 -6 3
-6 8 0 4 6 26 25 48 43 35 26 43 39 46 72 3 33 0 40 -14 40 -14 0 -18 -8 -18
-37 l-1 -38 -257 -175 c-141 -96 -381 -261 -534 -367 l-278 -192 -287 198
c-159 108 -342 235 -408 280 -66 45 -177 122 -247 169 l-128 87 0 42 0 41
1203 4 c661 2 1210 8 1220 12 15 7 17 1 17 -66 0 -45 5 -79 13 -87 10 -11 10
-13 0 -7 -16 9 -18 -30 -3 -39 6 -3 10 -14 9 -23 0 -14 -2 -13 -9 3 -4 11 -8
-296 -9 -682 0 -458 3 -703 9 -703 6 0 10 -4 10 -10 0 -7 -417 -10 -1230 -10
l-1230 0 0 597 0 596 23 -20 c19 -17 203 -144 722 -499 72 -48 149 -103 173
-121 24 -18 67 -40 97 -48 89 -26 117 -14 390 175 91 63 268 185 393 272 310
214 345 239 339 245 -7 7 -97 -38 -97 -49 0 -4 -4 -8 -10 -8 -5 0 -20 -10 -34
-22 -38 -36 -54 -48 -64 -48 -4 0 -17 -8 -28 -18 -10 -10 -38 -27 -61 -38 -23
-12 -40 -24 -36 -28 3 -3 -1 -6 -9 -6 -9 0 -18 -4 -20 -8 -5 -13 -104 -82
-117 -82 -6 0 -11 -4 -11 -9 0 -5 -10 -13 -22 -17 -13 -4 -29 -15 -36 -25 -7
-11 -18 -19 -23 -19 -5 0 -22 -11 -36 -24 -15 -14 -30 -23 -34 -20 -4 2 -10 0
-14 -6 -4 -6 -11 -8 -16 -4 -5 3 -8 0 -7 -7 2 -7 -7 -18 -19 -24 -13 -5 -23
-13 -23 -17 0 -5 -5 -8 -11 -8 -6 0 -27 -14 -46 -30 -19 -17 -38 -28 -43 -25
-4 3 -10 -2 -14 -10 -3 -8 -12 -15 -20 -15 -7 0 -16 -7 -20 -15 -3 -8 -12 -15
-20 -15 -7 0 -17 -7 -20 -16 -4 -9 -9 -14 -13 -11 -3 4 -11 0 -17 -9 -10 -13
-28 -20 -59 -23 -5 -1 -6 -5 -3 -10 3 -4 -6 -7 -21 -5 -14 1 -34 -3 -45 -9
-13 -8 -21 -9 -26 -2 -4 6 -26 17 -49 23 -24 7 -43 17 -43 22 0 6 -7 10 -15
10 -8 0 -15 7 -15 16 0 10 -6 14 -15 10 -8 -3 -15 -1 -15 4 0 6 -7 10 -16 10
-9 0 -12 5 -8 13 4 6 3 9 -1 4 -5 -4 -19 3 -32 15 -13 12 -23 19 -23 16 0 -3
-14 7 -31 23 -17 16 -37 29 -45 29 -8 0 -14 5 -14 10 0 6 -6 10 -12 10 -7 0
-24 12 -37 25 -13 14 -29 25 -37 25 -8 0 -14 5 -14 10 0 6 -7 10 -15 10 -8 0
-15 5 -15 11 0 5 -4 8 -8 5 -5 -3 -21 8 -36 25 -15 16 -34 29 -42 29 -8 0 -14
5 -14 10 0 6 -6 10 -14 10 -7 0 -19 7 -26 15 -7 9 -27 22 -44 30 -17 8 -43 26
-57 39 -14 13 -47 36 -75 51 -63 35 -137 87 -147 103 -4 6 -15 12 -24 12 -9 0
-14 3 -10 6 8 8 -59 43 -93 49 -28 5 -207 124 -238 158 -10 12 -24 36 -30 52
l-10 30 -1 -27 c-1 -37 49 -87 165 -165 l89 -60 2 -383 c1 -233 -2 -391 -8
-402 -6 -12 -6 -18 1 -18 15 0 13 -123 -2 -139 -11 -11 -10 -12 0 -7 10 6 13
-14 12 -101 -1 -59 0 -114 2 -121 2 -11 -27 -14 -140 -15 l-142 -2 0 808 c0
638 3 807 13 808 6 1 26 3 42 4 47 4 52 6 25 15 -23 8 -23 8 6 7 22 -1 30 -5
27 -14z m1210 10 c-7 -2 -19 -2 -25 0 -7 3 -2 5 12 5 14 0 19 -2 13 -5z m1190
0 c-7 -2 -21 -2 -30 0 -10 3 -4 5 12 5 17 0 24 -2 18 -5z m65 0 c-10 -2 -26
-2 -35 0 -10 3 -2 5 17 5 19 0 27 -2 18 -5z m129 1 c-3 -3 -12 -4 -19 -1 -8 3
-5 6 6 6 11 1 17 -2 13 -5z m-2264 -11 c-23 -2 -64 -2 -90 0 -26 2 -7 3 42 3
50 0 71 -1 48 -3z m110 0 c-13 -2 -33 -2 -45 0 -13 2 -3 4 22 4 25 0 35 -2 23
-4z m64 1 c-3 -3 -12 -4 -19 -1 -8 3 -5 6 6 6 11 1 17 -2 13 -5z m46 -1 c-7
-2 -19 -2 -25 0 -7 3 -2 5 12 5 14 0 19 -2 13 -5z m304 1 c-3 -3 -12 -4 -19
-1 -8 3 -5 6 6 6 11 1 17 -2 13 -5z m116 -1 c-7 -2 -19 -2 -25 0 -7 3 -2 5 12
5 14 0 19 -2 13 -5z m1674 -345 c-3 -7 -5 -2 -5 12 0 14 2 19 5 13 2 -7 2 -19
0 -25z m0 -60 c-3 -7 -5 -2 -5 12 0 14 2 19 5 13 2 -7 2 -19 0 -25z m0 -90
c-3 -7 -5 -2 -5 12 0 14 2 19 5 13 2 -7 2 -19 0 -25z m0 -95 c-3 -10 -5 -4 -5
12 0 17 2 24 5 18 2 -7 2 -21 0 -30z m0 -95 c-3 -7 -5 -2 -5 12 0 14 2 19 5
13 2 -7 2 -19 0 -25z m-2770 -240 c-3 -8 -6 -5 -6 6 -1 11 2 17 5 13 3 -3 4
-12 1 -19z m0 -140 c-3 -8 -6 -5 -6 6 -1 11 2 17 5 13 3 -3 4 -12 1 -19z
m2770 -230 c-3 -8 -6 -5 -6 6 -1 11 2 17 5 13 3 -3 4 -12 1 -19z m0 -90 c-3
-8 -6 -5 -6 6 -1 11 2 17 5 13 3 -3 4 -12 1 -19z m-1804 -265 c-23 -2 -64 -2
-90 0 -26 2 -7 3 42 3 50 0 71 -1 48 -3z m84 1 c-3 -3 -12 -4 -19 -1 -8 3 -5
6 6 6 11 1 17 -2 13 -5z m200 0 c-3 -3 -12 -4 -19 -1 -8 3 -5 6 6 6 11 1 17
-2 13 -5z m46 -1 c-7 -2 -19 -2 -25 0 -7 3 -2 5 12 5 14 0 19 -2 13 -5z m164
1 c-3 -3 -12 -4 -19 -1 -8 3 -5 6 6 6 11 1 17 -2 13 -5z m281 -1 c-15 -2 -42
-2 -60 0 -18 2 -6 4 27 4 33 0 48 -2 33 -4z m129 0 c-20 -2 -52 -2 -70 0 -17
2 0 4 38 4 39 0 53 -2 32 -4z m101 0 c-10 -2 -28 -2 -40 0 -13 2 -5 4 17 4 22
1 32 -1 23 -4z m110 0 c-10 -2 -28 -2 -40 0 -13 2 -5 4 17 4 22 1 32 -1 23 -4z
m59 1 c-3 -3 -12 -4 -19 -1 -8 3 -5 6 6 6 11 1 17 -2 13 -5z m40 0 c-3 -3 -12
-4 -19 -1 -8 3 -5 6 6 6 11 1 17 -2 13 -5z m66 -1 c-7 -2 -19 -2 -25 0 -7 3
-2 5 12 5 14 0 19 -2 13 -5z"/>
<path d="M2836 1645 c-8 -53 -51 -98 -170 -178 -39 -26 -79 -54 -88 -62 -17
-14 -18 -55 -18 -601 0 -464 3 -585 13 -582 9 4 13 132 15 588 2 655 -6 586
82 645 61 40 65 44 120 93 40 36 50 52 56 88 3 25 4 47 1 50 -2 3 -8 -16 -11
-41z"/>
<path d="M920 962 c-94 -57 -446 -295 -465 -314 -11 -12 -14 -17 -6 -13 23 13
505 337 516 346 17 16 1 9 -45 -19z"/>
<path d="M2030 978 c25 -25 501 -341 506 -335 4 3 -461 318 -506 342 -13 7
-13 6 0 -7z"/>
<path d="M93 1535 c0 -38 2 -53 4 -32 2 20 2 52 0 70 -2 17 -4 1 -4 -38z"/>
<path d="M2950 125 l-23 -25 -1464 0 c-1294 0 -1463 -2 -1463 -15 0 -13 172
-15 1484 -15 l1483 0 -5 26 c-4 23 -2 25 17 19 17 -5 21 -2 21 14 0 28 -21 26
-50 -4z"/>
</g>
</svg>
