<?xml version="1.0" standalone="no"?>
<!DOCTYPE svg PUBLIC "-//W3C//DTD SVG 20010904//EN"
 "http://www.w3.org/TR/2001/REC-SVG-20010904/DTD/svg10.dtd">
<svg version="1.0" xmlns="http://www.w3.org/2000/svg"
 width="300.000000pt" height="300.000000pt" viewBox="0 0 300.000000 300.000000"
 preserveAspectRatio="xMidYMid meet">
<metadata>
Created by potrace 1.10, written by Peter Selinger 2001-2011
</metadata>
<g transform="translate(0.000000,300.000000) scale(0.100000,-0.100000)"
fill="#006400" stroke="none">
<path d="M1290 2983 c-278 -43 -530 -161 -740 -345 -483 -423 -622 -1133 -335
-1710 59 -119 92 -171 177 -275 l59 -73 -65 -142 c-173 -384 -176 -394 -133
-422 25 -17 66 -10 347 58 80 19 220 53 312 75 l166 40 114 -26 c102 -24 132
-27 308 -27 217 0 303 14 475 74 876 310 1231 1352 727 2135 -238 370 -666
625 -1072 640 -115 4 -108 -5 15 -20 121 -15 204 -33 310 -70 302 -105 551
-299 729 -568 79 -121 194 -396 182 -440 -2 -9 -1 -15 3 -12 15 9 34 -173 34
-320 0 -256 -51 -453 -172 -673 -155 -281 -434 -525 -721 -629 -80 -29 -151
-52 -180 -57 -14 -2 -32 -7 -40 -10 -8 -3 -33 -8 -55 -11 -22 -3 -53 -7 -70
-10 -48 -9 -345 -7 -358 2 -7 5 -28 10 -47 12 -19 1 -61 9 -93 17 -77 19 -107
18 -202 -7 -44 -11 -93 -23 -110 -25 -16 -3 -39 -9 -50 -14 -11 -4 -47 -13
-80 -20 -33 -6 -82 -18 -109 -26 -26 -8 -56 -14 -65 -14 -18 0 -227 -53 -253
-64 -11 -5 -21 0 -33 17 -18 28 -25 9 136 364 38 83 69 160 69 171 0 10 -28
54 -63 98 -252 315 -354 696 -297 1107 29 205 131 446 262 622 126 168 294
312 475 406 107 56 250 109 333 124 19 4 40 8 45 9 6 2 21 6 35 9 14 3 50 9
80 12 30 3 75 9 100 14 40 8 36 8 -40 8 -47 0 -96 -1 -110 -4z"/>
<path d="M1385 2883 c-16 -2 -73 -11 -125 -19 -52 -9 -102 -16 -110 -16 -8 -1
-17 -4 -20 -7 -3 -4 -36 -17 -75 -30 -174 -60 -379 -193 -507 -329 -34 -37
-66 -66 -70 -65 -4 2 -8 -1 -8 -7 0 -5 -30 -54 -66 -107 -142 -211 -215 -434
-227 -693 -4 -97 13 -262 38 -365 17 -69 92 -275 104 -285 3 -3 17 -25 30 -50
26 -49 110 -171 123 -181 5 -3 8 -10 7 -15 -1 -5 -1 -16 0 -24 1 -12 3 -12 10
-2 6 10 17 2 44 -28 38 -41 46 -75 27 -108 -18 -31 -70 -152 -70 -162 0 -6 -4
-10 -10 -10 -5 0 -10 -6 -10 -12 0 -7 -18 -53 -40 -103 -37 -83 -49 -125 -34
-125 7 0 121 27 334 79 85 21 179 42 208 46 28 4 52 10 52 15 0 4 26 10 58 14
42 5 75 1 128 -13 92 -26 123 -30 279 -37 131 -6 312 12 385 38 8 3 51 18 95
33 76 27 244 105 269 126 6 5 48 36 93 69 45 33 110 89 144 124 35 36 67 62
72 59 6 -3 7 -1 3 5 -3 6 20 46 53 89 284 372 334 927 123 1350 -43 87 -116
206 -144 237 -9 10 -15 24 -11 29 3 6 1 7 -4 4 -16 -10 -44 27 -37 49 4 13 3
15 -3 7 -7 -10 -22 0 -56 36 -64 67 -227 188 -312 232 -72 38 -193 86 -280
112 -116 35 -344 55 -460 40z m320 -28 c257 -42 500 -161 695 -342 124 -114
258 -315 321 -478 60 -154 82 -281 83 -465 1 -181 -12 -265 -64 -422 -164
-491 -624 -851 -1131 -886 -147 -10 -294 1 -422 33 l-105 26 -234 -57 c-128
-30 -281 -68 -340 -83 -60 -15 -108 -27 -108 -25 0 1 43 98 95 215 52 117 95
221 95 231 0 9 -27 48 -60 85 -162 182 -265 387 -317 633 -28 135 -24 382 9
525 73 314 239 572 490 761 185 139 377 217 628 257 63 10 284 5 365 -8z"/>
<path d="M1005 2351 c-21 -9 -333 -320 -348 -346 -21 -38 69 -250 170 -402
115 -171 336 -413 504 -549 202 -165 458 -304 558 -304 35 0 356 319 370 367
18 63 2 88 -187 276 -98 98 -184 182 -192 187 -8 6 -36 10 -62 10 -44 0 -52
-4 -113 -62 l-66 -61 -134 133 -134 134 59 62 c63 68 78 105 61 157 -7 21 -75
96 -195 216 -175 175 -185 183 -227 187 -24 2 -53 0 -64 -5z m119 -32 c14 -11
23 -25 20 -31 -4 -6 -3 -8 3 -5 5 3 80 -65 167 -152 141 -141 158 -162 163
-198 6 -47 -13 -95 -29 -72 -7 10 -8 8 -3 -7 4 -16 -5 -31 -40 -63 -25 -23
-45 -47 -45 -54 0 -7 25 -37 55 -67 30 -29 52 -57 49 -62 -3 -5 0 -7 8 -6 7 2
12 -3 11 -9 -2 -7 3 -12 10 -10 6 1 11 -4 9 -11 -1 -8 1 -11 6 -8 5 3 33 -19
62 -49 30 -30 62 -55 70 -55 9 0 27 11 40 25 12 13 27 22 33 18 6 -3 7 -1 3 5
-8 14 56 63 86 64 66 4 73 0 249 -177 96 -96 175 -182 177 -190 2 -8 8 -15 13
-15 13 0 11 -68 -4 -87 -40 -53 -316 -324 -334 -329 -11 -3 -49 2 -84 10 -71
19 -245 107 -242 123 1 7 -7 9 -20 5 -12 -3 -19 -1 -14 3 4 5 -7 15 -24 22
-19 8 -28 17 -23 24 4 8 3 9 -5 5 -12 -8 -166 102 -157 112 3 3 -8 12 -24 21
-46 25 -142 120 -134 133 4 6 3 8 -4 4 -6 -4 -41 25 -80 66 -115 122 -144 157
-137 168 4 6 1 9 -6 8 -14 -4 -102 112 -125 165 -9 20 -20 37 -24 37 -21 0
-130 255 -130 305 0 24 122 150 134 138 4 -4 6 -1 4 7 -2 8 3 14 10 12 8 -1
11 1 8 6 -3 5 37 50 88 100 90 88 95 92 138 92 31 0 54 -7 72 -21z"/>
<path d="M913 2128 c-74 -73 -139 -141 -144 -150 -22 -41 103 -281 230 -441
81 -102 65 -84 196 -217 189 -194 359 -324 530 -407 151 -73 138 -76 289 76
132 132 150 154 144 171 -5 15 -300 310 -320 321 -24 13 -41 2 -112 -70 -42
-44 -67 -61 -85 -61 -21 0 -66 40 -209 183 -123 123 -182 189 -182 204 0 13
28 50 70 94 39 41 70 81 70 89 0 16 -319 340 -335 340 -5 0 -69 -60 -142 -132z
m302 -58 l156 -154 -76 -76 c-59 -59 -75 -82 -75 -105 0 -24 30 -59 183 -213
186 -187 222 -217 254 -206 10 4 52 39 93 79 l75 72 156 -158 155 -158 -135
-135 -136 -134 -37 13 c-306 110 -752 520 -957 880 -28 50 -59 113 -67 140
l-16 50 128 132 c71 72 132 131 136 130 4 -1 77 -72 163 -157z"/>
<path d="M551 364 c0 -11 3 -14 6 -6 3 7 2 16 -1 19 -3 4 -6 -2 -5 -13z"/>
<path d="M161 1724 c0 -11 3 -14 6 -6 3 7 2 16 -1 19 -3 4 -6 -2 -5 -13z"/>
</g>
</svg>
