<?xml version="1.0" standalone="no"?>
<!DOCTYPE svg PUBLIC "-//W3C//DTD SVG 20010904//EN"
 "http://www.w3.org/TR/2001/REC-SVG-20010904/DTD/svg10.dtd">
<svg version="1.0" xmlns="http://www.w3.org/2000/svg"
 width="300.000000pt" height="209.000000pt" viewBox="0 0 300.000000 209.000000"
 preserveAspectRatio="xMidYMid meet">
<metadata>
Created by potrace 1.10, written by Peter Selinger 2001-2011
</metadata>
<g transform="translate(0.000000,209.000000) scale(0.100000,-0.100000)"
fill="#a52a2a" stroke="none">
<path d="M1672 2010 c-38 -16 -92 -62 -107 -90 -8 -15 -17 -50 -21 -78 -6 -49
-9 -53 -52 -74 -69 -35 -102 -72 -102 -117 0 -44 20 -66 70 -76 19 -4 40 -12
47 -17 19 -16 115 -38 163 -38 25 0 88 12 140 26 52 15 121 30 153 35 94 14
153 52 177 113 14 38 2 49 -70 65 -30 6 -61 15 -67 19 -7 5 -20 47 -29 95 -21
113 -35 130 -105 132 -30 1 -81 4 -114 8 -33 4 -70 2 -83 -3z m259 -40 c19
-22 34 -104 23 -122 -5 -7 -3 -8 6 -3 28 17 2 -21 -29 -42 -44 -30 -116 -43
-237 -44 -134 0 -145 5 -137 74 8 69 25 101 76 138 l41 30 121 -6 c102 -5 122
-8 136 -25z m49 -201 c0 -9 -7 -22 -16 -30 -13 -11 -14 -9 -9 14 6 22 4 27
-11 27 -18 1 -18 1 0 15 22 16 36 6 36 -26z m-32 -4 c13 -12 -28 -47 -75 -66
-48 -19 -78 -23 -168 -23 -131 -1 -155 8 -155 59 l0 33 31 -15 c25 -13 51 -14
127 -9 168 12 214 18 200 28 -8 6 -4 7 12 2 14 -3 26 -8 28 -9z m-411 -22 c-7
-38 7 -59 47 -73 46 -15 179 -15 241 0 69 18 154 60 160 80 5 16 10 17 67 2
34 -9 57 -17 50 -20 -7 -2 -27 1 -44 7 -17 6 -38 11 -47 10 -9 0 11 -9 43 -20
48 -17 61 -18 67 -7 6 9 9 6 9 -11 0 -46 -94 -111 -163 -111 -10 0 -71 -14
-135 -31 -134 -36 -212 -36 -297 -1 -27 11 -62 23 -77 26 -15 4 -35 18 -44 32
-16 23 -16 28 -1 59 11 23 32 43 64 59 61 32 66 32 60 -1z"/>
<path d="M1735 1974 c-22 -8 -46 -17 -54 -19 -8 -3 -12 -8 -9 -10 2 -3 36 6
74 19 38 14 60 25 49 25 -11 0 -38 -7 -60 -15z"/>
<path d="M1900 1976 c0 -2 7 -7 16 -10 8 -3 12 -2 9 4 -6 10 -25 14 -25 6z"/>
<path d="M177 1949 c-4 -35 -22 -125 -41 -199 -40 -155 -80 -366 -73 -385 6
-14 93 -38 108 -29 5 3 16 1 23 -5 21 -18 353 -16 571 2 55 5 107 19 111 31 3
7 -14 100 -36 207 -23 107 -48 244 -57 305 -8 62 -19 117 -23 124 -6 9 -43 9
-166 0 -147 -12 -250 -10 -365 6 l-46 6 -6 -63z m577 34 c9 -23 -5 -29 -104
-47 -176 -31 -241 -30 -407 6 -42 9 -53 15 -53 31 0 17 5 18 37 12 183 -35
274 -32 514 14 4 0 10 -7 13 -16z m-157 1 c-3 -3 -12 -4 -19 -1 -8 3 -5 6 6 6
11 1 17 -2 13 -5z m-104 -11 c-24 -2 -62 -2 -85 0 -24 2 -5 4 42 4 47 0 66 -2
43 -4z m282 -137 c8 -60 12 -113 8 -119 -3 -6 -1 -7 5 -3 7 4 12 4 12 -1 0 -7
53 -278 64 -325 3 -12 -8 -21 -41 -32 -51 -18 -47 -24 -61 94 l-11 85 5 -92
c4 -76 2 -93 -10 -93 -11 0 -16 24 -21 103 -13 180 -24 248 -19 112 3 -66 7
-144 11 -172 l5 -53 -30 0 c-16 0 -44 -3 -61 -6 l-31 -6 -1 63 c-1 35 -5 96
-9 134 -7 53 -7 40 -4 -57 4 -110 2 -128 -11 -128 -8 0 -16 1 -16 3 -1 1 -5
74 -9 162 l-6 160 -2 -167 -2 -168 -55 0 c-30 0 -58 0 -62 0 -8 0 -5 173 3
203 3 9 1 17 -4 17 -5 0 -12 -48 -16 -107 -4 -59 -8 -109 -10 -110 -2 -2 -11
0 -21 3 -16 7 -17 19 -11 153 4 80 9 166 11 191 4 40 4 42 -5 15 -5 -16 -13
-102 -16 -190 -3 -88 -7 -165 -9 -171 -2 -7 -24 -8 -70 -3 -38 5 -70 10 -72
13 -2 2 1 50 7 106 7 55 10 103 7 106 -3 3 -11 -42 -18 -100 -7 -58 -16 -106
-20 -106 -3 0 -5 21 -2 48 8 99 25 236 31 250 3 9 1 13 -5 9 -10 -6 -25 -105
-39 -248 l-6 -67 -37 10 c-20 5 -40 13 -44 17 -9 9 33 233 68 366 13 50 29
116 35 148 11 53 14 58 33 53 68 -19 209 -37 264 -34 l63 3 0 -67 c0 -38 4
-68 9 -68 6 0 7 28 4 69 l-6 68 54 7 c30 4 77 13 104 20 28 7 51 12 52 11 1 0
9 -50 18 -109z"/>
<path d="M240 1914 c0 -5 -4 -26 -9 -46 -5 -21 -5 -38 -1 -38 8 0 21 82 14 89
-2 2 -4 0 -4 -5z"/>
<path d="M682 1900 c-1 -14 3 -43 7 -65 l9 -40 0 35 c0 19 -4 49 -8 65 -7 27
-8 28 -8 5z"/>
<path d="M279 1875 c-6 -40 -4 -53 7 -43 3 3 4 23 2 44 l-3 39 -6 -40z"/>
<path d="M382 1864 c-1 -17 -4 -47 -7 -65 -5 -31 -5 -32 5 -9 6 13 9 42 7 65
-3 32 -4 34 -5 9z"/>
<path d="M825 1469 c-4 -6 -5 -12 -2 -15 2 -3 7 2 10 11 7 17 1 20 -8 4z"/>
<path d="M2285 1965 c-8 -25 -17 -73 -20 -105 -4 -33 -1 -24 11 27 2 13 8 22
12 22 4 -1 12 0 17 1 6 1 31 1 58 0 36 -1 47 2 47 13 0 9 3 22 6 30 4 12 -7
16 -62 19 -39 2 -68 -1 -69 -7z m12 -42 c-3 -10 -5 -2 -5 17 0 19 2 27 5 18 2
-10 2 -26 0 -35z m60 11 c-3 -3 -12 -4 -19 -1 -8 3 -5 6 6 6 11 1 17 -2 13 -5z"/>
<path d="M2822 1972 c-52 -2 -63 -6 -58 -18 3 -9 6 -22 6 -29 0 -9 19 -14 61
-17 l60 -3 -5 35 c-4 26 -3 30 4 15 7 -16 9 -17 9 -3 1 22 -3 24 -77 20z m15
-38 c-3 -3 -12 -4 -19 -1 -8 3 -5 6 6 6 11 1 17 -2 13 -5z"/>
<path d="M2424 1933 c-4 -21 -12 -44 -18 -52 -9 -12 -8 -13 3 -6 11 6 13 4 8
-8 -4 -11 -1 -17 8 -17 10 0 15 10 15 29 0 16 3 43 6 60 4 19 2 31 -4 31 -6 0
-14 -17 -18 -37z"/>
<path d="M2460 1945 c0 -14 0 -28 0 -32 0 -4 28 -7 62 -6 123 4 133 3 166 -2
27 -5 32 -3 32 14 0 49 -4 51 -136 51 l-124 0 0 -25z m165 4 c4 -6 2 -16 -5
-22 -9 -9 -11 -8 -8 3 2 8 -4 15 -12 15 -8 0 -14 -5 -13 -12 1 -6 -4 -14 -12
-17 -11 -4 -15 1 -15 17 0 18 6 23 29 25 16 1 33 -3 36 -9z m55 -9 c0 -5 -8
-10 -17 -10 -15 0 -16 2 -3 10 19 12 20 12 20 0z m-165 -10 c-3 -5 -13 -10
-21 -10 -8 0 -14 5 -14 10 0 6 9 10 21 10 11 0 17 -4 14 -10z"/>
<path d="M2730 1944 c6 -14 10 -40 10 -59 0 -19 5 -37 10 -40 6 -4 10 11 10
37 0 57 -9 88 -26 88 -10 0 -11 -6 -4 -26z"/>
<path d="M2900 1910 c0 -20 -16 -24 -92 -23 -22 0 -22 -1 -3 -37 17 -33 43
-50 77 -50 22 0 23 4 24 65 0 36 -1 65 -3 65 -2 0 -3 -9 -3 -20z m-23 -68 c-1
-20 -33 -27 -43 -10 -5 7 -2 8 7 4 8 -4 5 0 -5 8 -19 15 -19 16 11 16 24 0 31
-4 30 -18z"/>
<path d="M2584 1818 c0 -49 5 -88 9 -88 5 0 5 -6 0 -12 -4 -7 -9 -22 -11 -33
-2 -19 -1 -19 20 3 20 19 24 35 27 107 3 80 2 85 -17 85 -11 0 -22 6 -25 13
-2 6 -4 -27 -3 -75z"/>
<path d="M2276 1835 c-3 -32 -4 -60 -2 -63 3 -2 22 4 43 14 34 17 82 78 71 90
-3 2 -28 7 -55 11 l-50 5 -7 -57z m84 14 c0 -4 -10 -18 -22 -29 l-22 -21 -9
23 c-6 16 -4 26 8 35 17 12 45 7 45 -8z"/>
<path d="M2450 1860 c0 -25 -25 -37 -44 -21 -10 8 -15 5 -24 -14 -12 -27 -67
-65 -93 -65 -37 0 -35 -299 4 -510 16 -87 21 -154 21 -275 0 -124 1 -142 6
-80 4 45 5 -1 3 -105 -2 -102 3 -288 9 -415 l13 -230 38 -13 c32 -10 44 -10
65 1 27 12 27 13 39 182 6 94 12 229 12 300 1 127 12 316 32 560 5 66 15 183
20 260 8 97 16 145 26 155 27 28 39 -11 51 -167 7 -81 20 -229 29 -328 9 -99
17 -261 18 -360 0 -99 6 -256 13 -349 7 -93 10 -181 7 -195 -9 -42 15 -65 66
-65 24 0 53 4 63 9 14 6 17 5 12 -3 -4 -7 -5 -12 -2 -12 3 0 10 9 16 20 8 16
8 20 -2 18 -15 -3 -14 124 2 347 5 72 10 234 9 361 0 203 3 248 26 376 30 175
40 320 30 451 l-7 97 -33 0 c-36 0 -85 33 -85 58 -1 15 -2 15 -11 0 -16 -28
-49 -23 -49 7 0 23 -4 25 -45 25 -31 0 -45 -4 -44 -12 1 -7 1 -45 0 -85 -1
-61 -5 -76 -26 -101 -14 -17 -25 -40 -26 -53 -1 -19 -3 -16 -11 11 -5 19 -9
81 -8 138 l1 102 -60 0 c-55 0 -61 -2 -61 -20z m98 -69 c0 -36 -4 -69 -10 -72
-6 -4 -8 -18 -4 -33 4 -18 11 -24 19 -19 8 5 8 2 -1 -9 -10 -13 -10 -18 -1
-24 8 -5 10 -3 4 7 -7 12 -5 12 6 1 12 -11 12 -14 -1 -22 -8 -5 -18 -6 -23 -3
-5 3 -4 -3 1 -14 6 -10 7 -25 3 -32 -5 -7 -9 -43 -10 -81 -1 -37 -4 -78 -6
-91 -3 -13 -6 -48 -6 -76 -1 -29 -6 -50 -11 -47 -5 3 -8 -12 -7 -33 3 -85 -4
-189 -13 -207 -7 -13 -7 -16 1 -12 14 9 14 -7 0 -21 -7 -7 -20 -8 -33 -4 -11
5 -33 7 -49 5 -15 -1 -25 1 -22 6 3 5 0 12 -6 16 -8 4 -9 3 -5 -4 4 -7 2 -12
-3 -12 -6 0 -11 6 -11 13 0 9 -3 8 -9 -2 -5 -8 -9 2 -10 30 0 24 -3 55 -7 69
-6 28 -15 92 -18 130 -1 14 -5 30 -9 37 -4 6 -10 51 -13 100 -3 48 -8 112 -11
141 -3 30 -1 58 4 63 6 6 8 39 6 74 -3 52 -1 66 11 71 9 3 14 10 11 14 -3 5 3
7 12 6 17 -3 63 38 63 55 0 5 11 9 25 9 13 0 39 9 57 20 18 11 42 19 54 18 20
-2 22 -8 22 -67z m175 39 c35 -32 42 -35 52 -20 4 6 15 2 27 -10 12 -11 34
-26 50 -32 16 -7 31 -21 34 -32 8 -25 6 -134 -2 -148 -4 -6 -3 -8 4 -4 16 9 6
-188 -14 -266 -1 -5 -2 -22 -3 -39 0 -16 -4 -28 -8 -26 -5 3 -9 -10 -10 -29
-3 -53 -7 -74 -13 -74 -3 0 -5 -32 -5 -70 1 -39 -2 -76 -7 -83 -6 -9 -8 -9 -8
2 0 10 -3 11 -13 2 -8 -6 -17 -8 -20 -4 -4 3 -7 1 -7 -5 0 -7 -17 -12 -44 -12
l-44 0 -6 53 c-7 62 -15 176 -20 272 -10 181 -18 242 -38 287 -19 43 -20 49
-6 65 20 23 59 133 47 133 -10 0 -12 31 -3 54 9 23 21 20 57 -14z m-256 -844
c2 -1 4 -13 5 -27 2 -18 -2 -25 -19 -27 -13 -2 -23 -8 -23 -13 0 -12 -46 -12
-69 0 -15 8 -19 36 -12 73 1 5 110 -1 118 -6z m368 -47 c0 -28 -5 -35 -28 -43
-20 -7 -34 -7 -47 2 -11 7 -27 12 -35 12 -13 0 -12 -3 3 -18 12 -13 30 -18 61
-17 l44 2 -7 -271 c-4 -149 -9 -289 -11 -311 -2 -22 -4 -63 -6 -92 -3 -57 -9
-64 -54 -52 -23 6 -30 14 -30 34 0 14 3 25 7 25 4 0 6 6 3 13 -9 30 -20 165
-30 385 -7 136 -6 165 6 173 12 7 12 12 1 30 -11 17 -11 20 0 13 10 -6 11 -5
1 7 -12 15 -11 108 2 128 3 6 25 10 48 10 40 -1 40 -2 12 -9 l-30 -8 28 -1
c16 -1 30 5 34 14 10 27 28 10 28 -26z m-366 -38 c12 -8 13 -50 7 -257 -4
-136 -10 -252 -12 -256 -3 -5 -8 -55 -10 -111 -3 -56 -6 -107 -6 -113 -1 -13
-16 -13 -36 0 -7 4 -19 3 -26 -3 -11 -9 -15 -5 -18 21 -3 18 -2 45 3 60 4 16
3 28 -3 30 -15 5 -29 601 -14 616 3 2 20 5 40 6 20 2 39 6 43 10 8 8 15 7 32
-3z"/>
<path d="M2398 973 c7 -3 16 -2 19 1 4 3 -2 6 -13 5 -11 0 -14 -3 -6 -6z"/>
<path d="M2368 953 c7 -3 16 -2 19 1 4 3 -2 6 -13 5 -11 0 -14 -3 -6 -6z"/>
<path d="M2777 919 c7 -7 15 -10 18 -7 3 3 -2 9 -12 12 -14 6 -15 5 -6 -5z"/>
<path d="M2912 1860 c0 -14 2 -19 5 -12 2 6 2 18 0 25 -3 6 -5 1 -5 -13z"/>
<path d="M2923 1770 c0 -36 2 -50 4 -32 2 17 2 47 0 65 -2 17 -4 3 -4 -33z"/>
<path d="M2253 1740 c0 -47 2 -66 4 -42 2 23 2 61 0 85 -2 23 -4 4 -4 -43z"/>
<path d="M2934 1575 c0 -66 1 -92 3 -57 2 34 2 88 0 120 -2 31 -3 3 -3 -63z"/>
<path d="M2243 1575 c0 -44 2 -61 4 -37 2 23 2 59 0 80 -2 20 -4 1 -4 -43z"/>
<path d="M1016 1508 c-3 -7 -7 -25 -10 -39 -3 -14 -25 -54 -48 -90 l-43 -66
-19 -172 c-21 -198 -20 -200 54 -204 l44 -2 13 94 c7 52 14 99 16 104 6 18 65
-80 80 -133 29 -99 54 -117 199 -145 106 -20 177 -20 185 0 10 28 -21 89 -57
112 -68 42 -100 75 -110 111 -5 20 -10 116 -10 212 0 96 -4 180 -8 187 -11 17
-128 36 -150 24 -13 -7 -31 -6 -58 4 -49 18 -74 18 -78 3z m92 -19 c14 -5 31
-5 41 1 18 9 148 -7 138 -17 -3 -2 -27 0 -54 5 -27 5 -58 5 -69 1 -17 -7 -16
-8 6 -10 14 -1 32 -3 40 -4 8 -1 30 -3 48 -4 17 0 32 -6 32 -12 0 -10 -47 -8
-152 7 -34 5 -38 3 -38 -15 0 -22 -9 -25 -59 -15 -45 9 -38 24 11 24 48 0 48
8 0 12 -18 1 -31 7 -28 13 2 5 9 9 15 7 6 -1 28 -4 49 -7 l37 -4 -44 14 c-24
8 -47 17 -50 21 -7 6 42 -4 77 -17z m28 -51 c4 -7 3 -8 -4 -4 -7 4 -12 3 -12
-3 0 -5 6 -12 13 -14 9 -4 9 -6 0 -6 -15 -1 -26 16 -18 29 8 13 12 13 21 -2z
m44 -7 c0 -12 -20 -25 -27 -18 -7 7 6 27 18 27 5 0 9 -4 9 -9z m76 -1 c19 0
34 -4 34 -10 0 -5 -22 -10 -50 -10 -39 0 -50 3 -50 16 0 11 5 14 16 10 9 -3
31 -6 50 -6z m-88 -26 c112 -7 122 -9 122 -27 0 -18 -5 -19 -72 -13 -40 3
-102 10 -138 16 -36 5 -71 10 -77 10 -7 0 -13 7 -13 16 0 13 6 15 28 10 15 -3
82 -9 150 -12z m-125 -30 c23 -4 37 -12 37 -21 0 -9 -6 -13 -14 -10 -8 3 -31
9 -50 13 -39 7 -59 24 -29 24 10 0 35 -3 56 -6z m154 -56 l93 -3 0 -32 c0 -18
-3 -33 -7 -33 -37 -1 -235 -21 -247 -26 -9 -3 -16 -13 -16 -22 0 -13 17 -14
135 -8 74 4 135 3 136 -1 0 -4 2 -19 4 -33 2 -14 5 -46 7 -72 1 -25 6 -44 9
-42 3 2 12 -8 19 -21 7 -14 16 -25 20 -25 3 0 16 -9 28 -20 12 -12 22 -17 22
-13 0 4 7 -2 16 -13 8 -10 12 -12 8 -4 -4 8 3 5 16 -7 15 -14 20 -27 16 -38
-5 -15 -15 -17 -69 -11 -101 11 -170 27 -206 47 -18 11 -36 18 -38 15 -8 -7
70 -44 118 -56 24 -6 82 -15 129 -20 l85 -9 -100 4 c-134 4 -231 35 -239 75
-2 8 -8 28 -14 43 -7 16 -12 35 -12 44 0 25 -57 95 -125 153 -72 60 -85 96
-43 115 13 6 24 19 26 30 3 18 1 17 -17 -5 -11 -14 -21 -21 -21 -16 0 5 7 17
16 27 14 16 19 16 87 -2 40 -10 114 -19 164 -21z m-71 35 c-15 -4 -16 -7 -5
-15 11 -7 10 -8 -5 -6 -32 5 -31 28 1 27 19 -1 22 -3 9 -6z m31 -15 c-3 -8 -6
-5 -6 6 -1 11 2 17 5 13 3 -3 4 -12 1 -19z m133 2 c0 -6 -27 -10 -60 -10 -33
0 -60 4 -60 10 0 6 27 10 60 10 33 0 60 -4 60 -10z m-2 -112 c-5 -15 -98 -24
-98 -9 0 5 19 12 43 14 23 2 46 4 50 5 5 1 7 -4 5 -10z m-137 -5 c-11 -5 -11
-7 0 -14 10 -6 6 -9 -13 -9 -27 0 -35 9 -21 23 3 4 16 7 27 6 13 0 16 -3 7 -6z
m-191 -28 l26 -24 -15 -106 c-13 -96 -16 -105 -36 -105 -21 0 -45 17 -45 33 0
4 4 5 10 2 6 -3 7 1 4 10 -7 17 15 215 24 215 3 0 18 -11 32 -25z m140 15 c0
-5 -17 -10 -37 -10 -28 0 -34 3 -23 10 20 13 60 13 60 0z m-94 -77 c-3 -16
-10 -59 -15 -97 -6 -37 -13 -71 -17 -75 -4 -3 -4 13 0 37 3 24 9 70 13 103 3
32 10 59 15 59 5 0 7 -12 4 -27z"/>
<path d="M1766 1487 c-21 -6 -48 -24 -59 -39 -18 -24 -19 -30 -7 -60 8 -18 22
-45 32 -60 17 -25 17 -29 2 -67 -9 -23 -20 -41 -24 -41 -8 0 -17 56 -23 141
l-2 37 -93 -37 -94 -36 5 -45 c34 -303 38 -357 28 -439 -18 -140 -15 -225 8
-245 11 -10 21 -28 23 -40 2 -16 18 -26 68 -44 76 -27 88 -36 72 -55 -32 -38
-16 -220 22 -273 14 -18 15 -18 35 0 11 10 26 34 33 52 7 19 14 34 18 34 3 0
13 -17 22 -38 10 -20 33 -55 52 -77 52 -61 61 -44 61 123 0 75 -3 148 -8 162
-6 22 -2 28 37 52 24 14 70 34 102 43 85 24 94 39 94 149 0 50 -7 165 -17 255
-14 136 -15 178 -5 246 21 144 24 137 -69 176 -68 28 -84 39 -95 66 -8 18 -25
40 -39 49 -32 21 -129 27 -179 11z m167 -19 c18 -7 27 -18 27 -33 0 -22 -2
-22 -42 -13 -54 12 -142 4 -173 -16 -32 -21 -35 -20 -35 7 0 35 14 49 66 62
52 13 111 10 157 -7z m61 -181 c-4 -26 -11 -50 -15 -53 -5 -3 -9 0 -9 6 0 6
-11 22 -24 35 l-25 25 24 42 c14 24 25 52 26 63 0 11 7 0 15 -25 9 -28 12 -62
8 -93z m-50 117 c9 -3 12 -12 9 -22 -13 -35 -54 -92 -76 -107 -22 -14 -27 -13
-70 11 -40 22 -87 69 -87 88 0 3 12 12 28 20 27 15 164 22 196 10z m-265 -85
c1 -34 3 -65 6 -69 2 -4 -4 -15 -15 -25 -16 -14 -30 -16 -72 -12 -29 3 -47 4
-39 0 10 -4 10 -7 1 -13 -6 -4 12 -10 41 -13 40 -5 57 -3 70 8 9 9 23 13 31
10 11 -5 22 7 38 39 12 25 28 46 35 46 20 0 25 -60 25 -326 0 -138 3 -292 6
-342 l7 -92 33 0 c24 0 34 -5 34 -15 0 -19 -43 -20 -59 -2 -6 8 -23 12 -42 9
-21 -3 -40 2 -60 17 -21 15 -27 17 -23 6 9 -21 37 -35 73 -35 24 0 31 -4 31
-20 0 -31 -26 -35 -67 -10 -21 12 -65 32 -98 44 -42 15 -61 27 -63 41 -2 11
-9 26 -16 34 -8 10 -11 98 -11 290 0 152 -4 312 -9 357 l-9 80 44 13 c24 7 55
19 69 27 14 7 28 13 31 14 4 0 7 -27 8 -61z m398 29 l69 -33 -9 -62 -9 -63
-48 0 c-27 0 -51 3 -53 8 -3 4 18 6 46 5 l52 -1 -46 7 c-26 3 -55 13 -65 21
-18 14 -18 14 -5 -2 10 -14 10 -18 1 -18 -10 0 -10 -3 0 -15 8 -10 30 -15 64
-15 l51 0 -2 -97 c-2 -64 1 -91 6 -78 8 17 9 16 10 -10 0 -16 3 -113 6 -215 5
-144 3 -189 -7 -201 -7 -9 -40 -24 -73 -34 -33 -9 -78 -30 -99 -46 -30 -22
-43 -26 -53 -18 -14 13 -8 29 11 29 7 0 23 11 36 25 30 32 17 32 -22 0 -46
-38 -50 -30 -14 29 18 30 40 78 49 108 17 58 28 193 14 179 -4 -4 -10 -43 -12
-86 -4 -60 -12 -93 -36 -146 -33 -71 -51 -91 -24 -26 22 54 18 69 -5 18 -11
-24 -18 -52 -15 -63 4 -10 2 -18 -4 -18 -7 0 -10 125 -11 370 0 355 0 369 19
379 16 9 24 6 45 -20 14 -17 26 -35 26 -40 0 -5 4 -9 9 -9 13 0 34 105 29 141
-3 16 -4 29 -3 29 2 0 34 -15 72 -32z m-560 -70 c-3 -7 -5 -2 -5 12 0 14 2 19
5 13 2 -7 2 -19 0 -25z m317 -23 c10 -8 23 -12 27 -9 5 3 9 -42 9 -99 0 -100
-1 -105 -20 -100 -16 4 -20 0 -20 -17 0 -17 4 -21 20 -17 19 5 20 0 20 -153 0
-128 -3 -160 -15 -170 -10 -9 -15 -9 -15 -1 0 6 5 11 11 11 5 0 7 5 4 10 -9
15 -25 2 -25 -22 0 -15 5 -19 20 -15 19 5 20 0 20 -65 0 -66 -1 -69 -22 -66
-23 3 -23 7 -30 178 -4 96 -6 225 -3 285 3 61 2 145 -3 188 -4 42 -5 77 -2 77
3 0 14 -7 24 -15z m-159 -45 c-10 -11 -28 -19 -39 -19 -20 2 -20 2 1 6 12 2
27 11 33 19 7 8 15 14 18 14 3 0 -3 -9 -13 -20z m-138 -82 c-3 -8 -6 -5 -6 6
-1 11 2 17 5 13 3 -3 4 -12 1 -19z m277 -685 c-7 -42 -9 -45 -15 -23 -4 14 -5
-11 -2 -56 4 -69 2 -86 -16 -122 -37 -73 -52 -67 -72 28 -15 70 -14 152 1 180
17 31 22 19 9 -19 -12 -33 -4 -101 11 -101 5 0 4 13 -1 30 -8 21 -7 40 1 65
14 41 34 36 28 -7 -3 -16 -1 -31 4 -34 4 -3 8 10 8 29 0 26 5 36 20 40 13 3
20 14 20 28 0 12 3 20 6 17 3 -4 2 -28 -2 -55z m106 11 c0 -2 -6 -6 -12 -10
-7 -4 -10 -4 -6 1 4 4 1 14 -7 22 -8 8 -15 19 -15 25 0 6 9 1 20 -12 11 -13
20 -24 20 -26z m-29 -1 c12 -21 22 -53 23 -70 0 -18 4 -33 9 -33 5 0 7 21 4
48 -6 45 -6 45 5 12 11 -36 6 -220 -7 -252 -10 -24 -21 -15 -65 53 -45 70 -55
124 -39 213 13 79 34 87 70 29z"/>
<path d="M1622 1078 c-24 -5 -46 -16 -48 -23 -3 -8 -2 -49 3 -91 7 -73 10 -79
39 -96 30 -18 31 -18 87 13 l57 31 0 84 0 84 -27 0 c-16 0 -37 2 -48 4 -11 2
-39 0 -63 -6z m128 -20 c0 -9 -18 -13 -57 -13 -32 0 -70 -3 -85 -8 -34 -9 -38
9 -5 23 35 14 147 12 147 -2z m-22 -24 c19 -6 22 -13 22 -59 0 -52 -1 -54 -44
-79 -82 -48 -116 -29 -116 62 0 66 -5 61 65 75 32 7 48 7 73 1z"/>
<path d="M1746 750 c14 -141 24 -194 39 -209 15 -15 15 -13 2 19 -8 19 -17 72
-21 117 -3 45 -11 93 -16 105 -7 17 -8 8 -4 -32z"/>
<path d="M1943 1080 c-21 -9 -23 -16 -23 -83 0 -81 2 -85 67 -118 46 -24 60
-24 99 0 32 20 32 17 26 118 -2 25 -8 33 -33 42 -18 6 -56 11 -85 11 -30 0
-54 5 -54 10 0 15 111 12 143 -4 15 -8 27 -10 27 -5 0 22 -128 44 -167 29z
m147 -55 c5 -3 10 -33 10 -65 0 -57 -2 -60 -31 -76 -30 -15 -34 -15 -80 7 -40
18 -49 27 -50 48 0 14 -1 43 -2 65 l-2 39 72 -6 c40 -3 77 -8 83 -12z"/>
<path d="M2053 915 c0 -8 4 -12 9 -9 5 3 6 10 3 15 -9 13 -12 11 -12 -6z"/>
<path d="M1935 699 c-4 -6 -5 -12 -2 -15 2 -3 7 2 10 11 7 17 1 20 -8 4z"/>
<path d="M1824 1169 c-10 -17 13 -36 27 -22 12 12 4 33 -11 33 -5 0 -12 -5
-16 -11z"/>
<path d="M1832 877 c-13 -15 1 -42 17 -33 13 9 15 33 2 40 -5 3 -13 0 -19 -7z
m18 -17 c0 -5 -2 -10 -4 -10 -3 0 -8 5 -11 10 -3 6 -1 10 4 10 6 0 11 -4 11
-10z"/>
<path d="M1872 345 c-1 -44 2 -85 6 -92 4 -7 6 20 4 60 -5 108 -9 122 -10 32z"/>
<path d="M2253 1410 c0 -36 2 -50 4 -32 2 17 2 47 0 65 -2 17 -4 3 -4 -33z"/>
<path d="M2916 1381 c-3 -41 -4 -76 -2 -78 6 -6 19 123 14 139 -3 7 -8 -20
-12 -61z"/>
<path d="M2261 1304 c0 -16 4 -38 9 -49 6 -13 7 -5 3 25 -7 53 -13 66 -12 24z"/>
<path d="M2895 1245 c-3 -26 -4 -49 -2 -51 3 -3 8 16 12 41 3 26 4 49 2 51 -3
3 -8 -16 -12 -41z"/>
<path d="M2282 1195 c0 -16 2 -22 5 -12 2 9 2 23 0 30 -3 6 -5 -1 -5 -18z"/>
<path d="M2876 1143 c-3 -21 -5 -56 -5 -78 1 -26 5 -14 10 34 9 79 6 108 -5
44z"/>
<path d="M2292 1130 c0 -19 2 -27 5 -17 2 9 2 25 0 35 -3 9 -5 1 -5 -18z"/>
<path d="M400 1123 c-43 -22 -66 -83 -76 -202 l-7 -81 -118 0 c-116 0 -124 -2
-121 -31 1 -4 8 -80 17 -170 8 -90 23 -198 33 -239 l17 -75 105 -8 c58 -5 201
-7 319 -4 186 3 215 6 226 20 19 27 75 480 61 495 -4 4 -56 9 -116 10 l-108 4
-6 36 c-3 21 -6 53 -6 73 0 55 -27 133 -55 159 -34 32 -116 38 -165 13z m41
-20 c-60 -31 -73 -59 -77 -164 l-3 -94 9 93 c12 121 44 165 121 165 53 0 67
-26 79 -143 6 -57 13 -107 16 -112 3 -4 -47 -8 -110 -8 l-116 0 -7 -27 -7 -28
-7 35 c-4 19 -4 37 0 40 5 3 11 43 15 90 11 127 11 128 29 147 8 10 33 19 54
21 l38 2 -34 -17z m124 -9 c14 -15 28 -47 34 -77 14 -76 23 -227 12 -227 -4 0
-10 54 -13 119 -5 130 -21 174 -69 198 -18 10 -20 13 -6 13 10 0 29 -12 42
-26z m-228 -216 c-3 -7 -5 -2 -5 12 0 14 2 19 5 13 2 -7 2 -19 0 -25z m-9 -90
c-5 -88 2 -148 17 -148 15 0 22 60 17 148 l-1 32 114 0 115 0 -2 -37 c-2 -21
1 -81 6 -134 6 -81 5 -97 -8 -108 -23 -19 -20 -58 4 -66 41 -13 67 38 35 65
-17 14 -20 87 -4 92 7 2 12 37 12 96 l1 92 108 -1 107 0 -4 -42 c-22 -203 -49
-406 -56 -424 -8 -20 -15 -23 -69 -23 -54 0 -61 2 -56 18 12 41 46 295 50 377
l5 90 -9 -80 c-15 -121 -50 -368 -56 -387 -5 -16 -22 -18 -184 -18 l-178 0
-11 33 c-17 56 -32 168 -41 312 l-9 140 4 -150 c4 -134 21 -268 40 -317 6 -15
1 -18 -28 -18 -87 0 -92 4 -110 93 -9 45 -21 136 -27 202 -6 66 -13 137 -16
158 l-6 37 121 0 120 0 -1 -32z m32 -18 c0 -5 -7 -10 -15 -10 -8 0 -15 5 -15
10 0 6 7 10 15 10 8 0 15 -4 15 -10z m260 -15 c0 -14 -4 -25 -8 -25 -4 0 -9
11 -10 25 -1 14 3 25 8 25 6 0 10 -11 10 -25z m-273 -92 c-3 -10 -5 -2 -5 17
0 19 2 27 5 18 2 -10 2 -26 0 -35z m273 12 c0 -19 -2 -35 -4 -35 -2 0 -6 16
-8 35 -2 19 0 35 4 35 4 0 8 -16 8 -35z m0 -165 c0 -11 -7 -20 -15 -20 -8 0
-15 9 -15 20 0 11 7 20 15 20 8 0 15 -9 15 -20z"/>
<path d="M384 1088 l-19 -23 23 19 c21 18 27 26 19 26 -2 0 -12 -10 -23 -22z"/>
<path d="M722 630 c0 -14 2 -19 5 -12 2 6 2 18 0 25 -3 6 -5 1 -5 -13z"/>
<path d="M285 459 c-4 -6 -5 -12 -2 -15 2 -3 7 2 10 11 7 17 1 20 -8 4z"/>
<path d="M2303 1045 c0 -22 2 -30 4 -17 2 12 2 30 0 40 -3 9 -5 -1 -4 -23z"/>
<path d="M2874 730 c0 -63 1 -89 3 -57 2 31 2 83 0 115 -2 31 -3 5 -3 -58z"/>
<path d="M2304 685 c0 -66 1 -92 3 -57 2 34 2 88 0 120 -2 31 -3 3 -3 -63z"/>
<path d="M1107 704 c-3 -11 -20 -91 -37 -179 -18 -88 -40 -178 -50 -201 -18
-43 -57 -73 -123 -94 -25 -8 -46 -24 -61 -48 -23 -35 -23 -38 -8 -54 22 -23
158 -42 237 -34 105 12 119 20 155 89 34 63 94 139 104 130 3 -3 2 -43 -1 -89
-4 -60 -2 -88 7 -99 15 -18 95 -21 106 -4 4 6 8 50 11 98 2 47 6 109 9 136 10
84 6 116 -22 178 -14 33 -29 83 -33 111 l-6 51 -60 0 c-33 0 -65 3 -71 7 -6 4
-43 11 -82 14 -63 6 -70 5 -75 -12z m33 -13 c-19 -6 -12 -9 33 -12 62 -4 90 7
35 14 l-33 4 37 1 c24 1 40 -3 45 -13 7 -12 16 -13 46 -4 21 6 48 8 60 6 17
-3 15 -5 -8 -6 -16 -1 -39 -7 -50 -12 -15 -7 -8 -8 28 -5 36 3 47 0 47 -11 0
-10 -9 -13 -32 -9 -18 3 -69 8 -113 11 -89 6 -125 14 -125 24 0 14 13 21 34
20 18 -1 18 -2 -4 -8z m70 -58 c0 -13 -9 -14 -47 -8 -52 8 -66 13 -59 23 2 4
27 5 55 4 37 -3 51 -8 51 -19z m30 -9 c0 -8 -4 -12 -10 -9 -5 3 -10 10 -10 16
0 5 5 9 10 9 6 0 10 -7 10 -16z m50 1 c0 -8 -8 -15 -17 -14 -13 0 -14 2 -4 6
11 5 11 7 0 14 -11 7 -10 9 4 9 9 0 17 -7 17 -15z m71 5 c16 0 29 -4 29 -10 0
-5 -20 -10 -45 -10 -35 0 -45 4 -45 16 0 11 5 14 16 10 9 -3 29 -6 45 -6z
m-180 -19 c31 -5 87 -11 125 -12 77 -2 94 -6 94 -22 0 -13 -254 -3 -290 12
-14 5 -19 10 -12 10 7 1 10 6 7 11 -8 12 5 12 76 1z m28 -56 c2 -3 1 -8 -2
-11 -10 -10 -110 9 -114 22 -3 8 13 9 54 2 31 -5 59 -11 62 -13z m31 -5 c0 -5
-4 -10 -10 -10 -5 0 -10 5 -10 10 0 6 5 10 10 10 6 0 10 -4 10 -10z m50 -5 c0
-9 -9 -15 -22 -14 -21 1 -21 2 -3 7 20 5 20 5 0 13 -19 7 -19 8 3 8 13 1 22
-5 22 -14z m120 4 c0 -9 -38 -19 -72 -19 -17 0 -28 5 -28 14 0 10 14 13 50 13
28 0 50 -4 50 -8z m-120 -25 l135 -3 13 -38 c18 -53 9 -74 -45 -103 l-47 -25
0 -65 1 -65 -4 58 c-2 31 -8 57 -14 57 -16 0 -94 -77 -109 -107 -8 -15 -21
-36 -30 -47 -8 -10 -13 -21 -10 -25 3 -3 -12 -14 -33 -24 -49 -24 -236 -26
-288 -3 l-34 15 35 -7 c19 -4 87 -7 150 -7 93 0 121 3 145 18 33 20 37 20 -60
-5 -46 -11 -206 -3 -236 12 -26 14 -9 47 29 56 69 17 132 64 150 113 l9 25 6
-23 c3 -13 3 -20 0 -17 -4 3 -17 -9 -29 -28 -22 -33 -94 -76 -126 -76 -8 0
-23 -9 -33 -20 -18 -20 -18 -20 4 -17 12 2 26 9 30 16 4 6 19 13 32 13 21 2
134 78 115 78 -4 0 0 7 8 16 9 8 14 19 11 24 -3 5 -1 27 4 49 5 24 5 39 0 35
-5 -3 -9 2 -9 10 0 20 12 20 75 0 28 -8 82 -21 122 -28 59 -11 73 -11 77 0 3
7 2 16 -3 18 -11 7 -90 33 -136 45 -130 32 -122 28 -117 62 4 30 6 31 41 24
20 -4 97 -9 171 -11z m-157 -70 c23 -4 37 -12 37 -21 0 -16 -20 -14 -75 7 -47
18 -30 25 38 14z m115 -41 c2 -9 -6 -13 -25 -12 -15 0 -22 3 -14 6 11 5 11 7
0 15 -10 6 -7 8 10 6 14 -2 26 -9 29 -15z m72 -19 c0 -2 -13 -4 -30 -4 -20 0
-30 5 -30 14 0 12 6 13 30 5 17 -6 30 -13 30 -15z m-263 -26 c-3 -8 -6 -5 -6
6 -1 11 2 17 5 13 3 -3 4 -12 1 -19z m377 -50 c-2 -40 -6 -98 -7 -128 l-3 -55
-38 -3 c-33 -3 -38 -1 -32 13 3 9 6 59 6 111 l0 94 38 19 c20 11 38 20 39 21
2 0 0 -33 -3 -72z m-97 -165 c-3 -10 -5 -2 -5 17 0 19 2 27 5 18 2 -10 2 -26
0 -35z"/>
<path d="M2863 515 c0 -33 2 -45 4 -27 2 18 2 45 0 60 -2 15 -4 0 -4 -33z"/>
<path d="M2314 465 c0 -49 1 -71 3 -48 2 23 2 64 0 90 -2 26 -3 8 -3 -42z"/>
<path d="M2853 360 c0 -41 2 -58 4 -37 2 20 2 54 0 75 -2 20 -4 3 -4 -38z"/>
<path d="M2322 240 c-1 -47 2 -90 6 -97 4 -6 6 23 4 65 -4 114 -9 128 -10 32z"/>
<path d="M2842 190 c0 -14 2 -19 5 -12 2 6 2 18 0 25 -3 6 -5 1 -5 -13z"/>
</g>
</svg>
